<svg width="40" height="40" viewBox="0 0 40 40" fill="none" xmlns="http://www.w3.org/2000/svg">
<path d="M10.5278 11.4286C9.10156 11.4286 7.94444 12.5804 7.94444 14V20H13.1111V14C13.1111 12.5804 11.954 11.4286 10.5278 11.4286ZM4.5 14C4.5 10.6839 7.19635 8 10.5278 8C13.8592 8 16.5556 10.6839 16.5556 14V26C16.5556 29.3161 13.8592 32 10.5278 32C7.19635 32 4.5 29.3161 4.5 26V14ZM34.3644 27.6821C33.9823 28.3411 33.0889 28.3839 32.5453 27.8482L22.4488 17.7982C21.9106 17.2625 21.9483 16.3679 22.6156 15.9875C23.875 15.2696 25.3335 14.8571 26.8889 14.8571C31.6465 14.8571 35.5 18.6929 35.5 23.4286C35.5 24.9768 35.0856 26.4286 34.3644 27.6821ZM31.1622 30.8696C29.9028 31.5875 28.4443 32 26.8889 32C22.1313 32 18.2778 28.1643 18.2778 23.4286C18.2778 21.8804 18.6922 20.4286 19.4134 19.175C19.7955 18.5161 20.6889 18.4732 21.2325 19.0089L31.329 29.0589C31.8672 29.5946 31.8295 30.4893 31.1622 30.8696Z" fill="#2F69FC"/>
</svg>
