<svg width="32" height="32" viewBox="0 0 32 32" fill="none" xmlns="http://www.w3.org/2000/svg">
<circle cx="16" cy="16" r="16" fill="#D9D9D9"/>
<path d="M17.8002 6V7.79993M17.8002 7.79993V9.59986M17.8002 7.79993H14.2002M14.2002 7.79993V6M14.2002 7.79993V9.59986" stroke="#111111" stroke-width="1.5" stroke-linecap="round"/>
<path d="M7.90039 24.0002V14.4425C7.90039 11.2899 7.90039 9.71321 8.93809 8.73315C9.59779 8.11037 10.5131 7.88358 11.9504 7.80078M24.1004 24.0002V14.4425C24.1004 11.2899 24.1004 9.71321 23.0627 8.73315C22.403 8.11037 21.4877 7.88358 20.0504 7.80078" stroke="#111111" stroke-width="1.5" stroke-linecap="round" stroke-linejoin="round"/>
<path d="M17.8 13.1992H19.6M17.8 16.7991H19.6M11.5 16.7991H13.3M11.5 13.1992H13.3" stroke="#111111" stroke-width="1.5" stroke-linecap="round"/>
<path d="M7 24H13.75M25 24H18.25" stroke="#111111" stroke-width="1.5" stroke-linecap="round" stroke-linejoin="round"/>
<path d="M13.75 23.9998V21.7499C13.75 20.9084 13.75 20.4882 13.9309 20.175C14.0494 19.9698 14.2198 19.7994 14.425 19.6809C14.7382 19.5 15.1585 19.5 16 19.5C16.8415 19.5 17.2618 19.5 17.575 19.6809C17.7802 19.7994 17.9506 19.9698 18.0691 20.175C18.25 20.4882 18.25 20.9084 18.25 21.7499V23.9998" stroke="#111111" stroke-width="1.5" stroke-linecap="round"/>
</svg>
