<svg width="16" height="16" viewBox="0 0 16 16" fill="none" xmlns="http://www.w3.org/2000/svg">
<path d="M8 2.06665C11.6449 2.06665 14.5994 5.02136 14.5996 8.66626C14.5996 12.3113 11.6451 15.2668 8 15.2668C4.35492 15.2668 1.40039 12.3113 1.40039 8.66626C1.4006 5.02136 4.35505 2.06665 8 2.06665ZM8 3.26685C5.01779 3.26685 2.59982 5.6841 2.59961 8.66626C2.59961 11.6486 5.01766 14.0667 8 14.0667C10.9823 14.0667 13.4004 11.6486 13.4004 8.66626C13.4002 5.6841 10.9822 3.26685 8 3.26685ZM8 5.39966C8.33137 5.39966 8.59961 5.66887 8.59961 6.00024V8.41821L10.0908 9.90942C10.325 10.1437 10.3251 10.5238 10.0908 10.7581C9.85653 10.992 9.47641 10.9921 9.24219 10.7581L7.57617 9.09106C7.46365 8.97854 7.40039 8.82539 7.40039 8.66626V6.00024C7.40039 5.66887 7.66863 5.39966 8 5.39966ZM4.68164 0.824463C4.96254 0.648904 5.33308 0.734145 5.50879 1.01489C5.68436 1.2958 5.59914 1.66634 5.31836 1.84204L2.65137 3.50903C2.37038 3.68459 1.99983 3.5986 1.82422 3.31763C1.64892 3.03667 1.73476 2.667 2.01562 2.49146L4.68164 0.824463ZM10.4912 1.01489C10.6669 0.734139 11.0375 0.648901 11.3184 0.824463L13.9844 2.49146C14.2652 2.667 14.3511 3.03667 14.1758 3.31763C14.0002 3.5986 13.6296 3.68459 13.3486 3.50903L10.6816 1.84204C10.4009 1.66634 10.3156 1.2958 10.4912 1.01489Z" fill="#F9783C" stroke="#F9783C" stroke-width="0.2" stroke-linecap="round" stroke-linejoin="round"/>
</svg>
