<svg width="21" height="21" viewBox="0 0 21 21" fill="none" xmlns="http://www.w3.org/2000/svg">
<path d="M18.0501 13.999C17.982 13.917 17.9151 13.835 17.8495 13.7558C16.9472 12.6644 16.4012 12.0057 16.4012 8.91598C16.4012 7.31637 16.0186 6.00387 15.2643 5.01949C14.7081 4.29228 13.9563 3.74063 12.9654 3.33293C12.9526 3.32584 12.9412 3.31653 12.9317 3.30545C12.5753 2.11189 11.5999 1.3125 10.4999 1.3125C9.39987 1.3125 8.42493 2.11189 8.0685 3.30422C8.05899 3.31489 8.04776 3.3239 8.03528 3.33088C5.72282 4.28285 4.59899 6.10928 4.59899 8.91475C4.59899 12.0057 4.05389 12.6644 3.15073 13.7546C3.0851 13.8338 3.01825 13.9141 2.95016 13.9978C2.77429 14.2099 2.66286 14.468 2.62906 14.7414C2.59526 15.0149 2.6405 15.2923 2.75944 15.5408C3.01251 16.074 3.55186 16.405 4.16751 16.405H16.8368C17.4496 16.405 17.9853 16.0744 18.2391 15.5437C18.3586 15.2951 18.4043 15.0175 18.3708 14.7437C18.3372 14.4699 18.226 14.2115 18.0501 13.999Z" fill="#111111" fill-opacity="0.8"/>
<path d="M10.4999 19.6875C11.0926 19.687 11.6741 19.5261 12.1827 19.2219C12.6914 18.9177 13.1082 18.4815 13.389 17.9595C13.4022 17.9345 13.4088 17.9065 13.408 17.8782C13.4072 17.8499 13.3991 17.8223 13.3845 17.7981C13.3699 17.7739 13.3492 17.7538 13.3246 17.7399C13.2999 17.726 13.2721 17.7187 13.2438 17.7188H7.75675C7.72842 17.7187 7.70054 17.7259 7.67584 17.7398C7.65114 17.7536 7.63045 17.7737 7.61579 17.7979C7.60112 17.8222 7.59299 17.8498 7.59218 17.8781C7.59136 17.9064 7.5979 17.9345 7.61114 17.9595C7.89191 18.4814 8.30868 18.9176 8.81725 19.2218C9.32583 19.526 9.90725 19.6869 10.4999 19.6875Z" fill="#111111" fill-opacity="0.8"/>
</svg>
