<svg width="42" height="42" viewBox="0 0 42 42" fill="none" xmlns="http://www.w3.org/2000/svg">
<rect width="42" height="42" rx="21" fill="white"/>
<path d="M11.4883 27.3984C11.2271 27.3667 10.9792 27.3606 10.7436 27.302C9.77438 27.0628 9.16035 26.0573 9.18842 25.2897C9.21894 24.4403 9.19453 23.5885 9.19575 22.7379C9.19697 21.636 10.2566 20.6377 11.3589 20.6999C11.3955 20.7024 11.4309 20.6999 11.459 20.6999C11.5103 20.1935 11.5359 19.6932 11.614 19.2014C11.94 17.1658 12.8909 15.4647 14.4071 14.0747C15.6425 12.9422 17.078 12.1917 18.7236 11.861C19.1948 11.7658 19.677 11.7146 20.1567 11.6706C20.3667 11.6511 20.4631 11.6096 20.4558 11.3704C20.4387 10.7676 20.4412 10.1635 20.4546 9.55944C20.4583 9.37883 20.396 9.2873 20.2471 9.19578C19.677 8.84798 19.4353 8.22561 19.6159 7.62032C19.8052 6.98452 20.3691 6.55862 21.0161 6.56228C21.6399 6.56594 22.2344 7.03211 22.4017 7.6496C22.5579 8.22805 22.2881 8.88459 21.7425 9.19822C21.5862 9.28852 21.5349 9.38493 21.5374 9.5631C21.5484 10.238 21.5423 10.9128 21.5423 11.6072C23.9984 11.7646 26.1298 12.6286 27.8754 14.3615C29.6333 16.1066 30.4597 18.2434 30.4781 20.7122C30.6844 20.7244 30.8675 20.7195 31.0445 20.75C32.0613 20.9282 32.7071 21.5469 32.7718 22.5695C32.8353 23.5787 32.8219 24.6002 32.7498 25.6094C32.6876 26.4832 31.9771 27.1482 31.1055 27.3057C30.9358 27.3362 30.7637 27.3557 30.5647 27.3838C30.3255 30.2174 29.0303 32.4921 26.7389 34.1884C24.8456 35.5906 22.7142 36.2288 20.3533 36.086C16.1259 35.8285 11.7312 32.4409 11.4883 27.3984ZM24.7394 20.1813C24.6014 19.8604 24.4501 19.5443 24.3292 19.2172C24.2315 18.9524 24.339 18.7132 24.5685 18.5888C24.8016 18.4618 25.0543 18.5021 25.2277 18.723C25.3204 18.8414 25.3864 18.9878 25.4376 19.1318C25.6134 19.6248 25.9247 20.0214 26.4313 20.141C26.9574 20.2655 27.5092 20.3094 28.0512 20.3241C28.4297 20.3338 28.7141 19.9983 28.6848 19.609C28.6579 19.2514 28.5908 18.8865 28.4797 18.546C27.7473 16.3055 26.2116 14.8203 24.0704 13.9173C23.9081 13.8489 23.7359 13.8062 23.5577 13.7477C23.5235 13.9331 23.4991 14.0845 23.4661 14.2334C23.2403 15.2841 22.6263 16.0553 21.7266 16.613C21.408 16.8095 21.0845 16.7192 20.9063 16.408C20.7537 16.1407 20.8489 15.8613 21.1541 15.6709C21.2774 15.594 21.4068 15.522 21.5191 15.4305C22.1465 14.918 22.4676 14.2565 22.4822 13.4182C20.0871 13.024 17.9618 13.6293 16.0184 14.9814C16.1246 16.0944 16.5409 16.7448 17.3551 16.6814C17.3612 16.657 17.371 16.6325 17.3747 16.6057C17.559 15.3231 18.6662 14.3151 19.9712 14.4054C20.2837 14.4274 20.4399 14.5775 20.4509 14.907C20.4619 15.2414 20.3166 15.4232 20.0163 15.4525C19.8613 15.4671 19.7075 15.4854 19.5525 15.5013C19.0373 15.5538 18.455 16.1102 18.488 16.6972C18.5112 16.7033 18.5368 16.7131 18.5625 16.7155C20.0102 16.8583 20.8916 17.8956 21.0064 19.155C21.0344 19.4686 21.0625 19.7822 21.0906 20.0934C22.3357 20.1239 23.5492 20.1532 24.7394 20.1813ZM25.1996 26.4307C26.3105 26.438 27.1979 25.5398 27.2016 24.4061C27.204 23.342 26.3495 22.489 25.2667 22.478C24.1339 22.4658 23.2818 23.3127 23.2733 24.4598C23.2647 25.5313 24.1363 26.4234 25.1996 26.4307ZM14.7904 24.4208C14.7391 25.7265 15.839 26.4319 16.7497 26.4319C17.8386 26.4307 18.6943 25.5642 18.6943 24.461C18.6943 23.3957 17.8044 22.4853 16.7667 22.4926C15.629 22.4987 14.7892 23.3188 14.7904 24.4208ZM15.1651 15.9077C15.1065 15.9528 15.0834 15.9675 15.0638 15.9858C14.0152 16.934 13.5172 18.169 13.2681 19.5187C13.1692 20.0556 13.5696 20.3936 14.1226 20.3046C14.4583 19.144 15.2323 18.4216 16.1771 18.3618C17.111 18.3032 18.1108 18.7071 18.5515 20.1252C19.0398 20.1252 19.5195 20.1252 20.031 20.1252C20.0041 19.8006 19.9846 19.5199 19.9553 19.2404C19.8808 18.5326 19.4438 18.0054 18.7431 17.8749C18.2719 17.787 17.7824 17.7821 17.3002 17.7638C16.7448 17.7418 16.2833 17.521 15.8732 17.1622C15.4947 16.8315 15.2958 16.4007 15.1651 15.9077ZM17.3612 20.1959C17.3771 19.8347 16.7899 19.4601 16.3468 19.4564C15.8182 19.4503 15.4227 19.7517 15.3019 20.285C15.9928 20.2557 16.6764 20.2265 17.3612 20.1959Z" fill="#2260FF"/>
<path d="M24.7392 20.1805C23.549 20.1524 22.3356 20.1231 21.0917 20.0926C21.0636 19.7814 21.0368 19.4678 21.0075 19.1541C20.8927 17.8935 20.0113 16.8562 18.5635 16.7147C18.5379 16.7122 18.5123 16.7025 18.4891 16.6964C18.4561 16.1094 19.0384 15.5529 19.5536 15.5004C19.7086 15.4846 19.8624 15.4675 20.0174 15.4516C20.3177 15.4223 20.463 15.2405 20.452 14.9061C20.441 14.5766 20.2848 14.4265 19.9723 14.4046C18.6673 14.313 17.5601 15.3223 17.3758 16.6048C17.3721 16.6305 17.3623 16.6561 17.3562 16.6805C16.5408 16.744 16.1257 16.0947 16.0195 14.9806C17.9629 13.6297 20.087 13.0231 22.4833 13.4173C22.4675 14.2557 22.1476 14.9159 21.5202 15.4297C21.4079 15.5212 21.2797 15.5932 21.1552 15.6701C20.8488 15.8604 20.7535 16.1399 20.9074 16.4072C21.0856 16.7183 21.4091 16.8086 21.7277 16.6122C22.6274 16.0557 23.2414 15.2844 23.4672 14.2325C23.499 14.0824 23.5234 13.9311 23.5588 13.7468C23.737 13.8054 23.9091 13.8481 24.0715 13.9164C26.2127 14.8195 27.7484 16.3046 28.4808 18.5452C28.5919 18.8869 28.659 19.2506 28.6859 19.6081C28.7152 19.9962 28.4295 20.333 28.0523 20.3232C27.5103 20.3086 26.9573 20.2647 26.4324 20.1402C25.9258 20.0206 25.6145 19.624 25.4387 19.131C25.3875 18.987 25.3215 18.8405 25.2288 18.7221C25.0554 18.5 24.8027 18.461 24.5696 18.5879C24.3401 18.7124 24.2326 18.9516 24.3303 19.2164C24.4487 19.5447 24.6013 19.8607 24.7392 20.1805ZM24.3633 16.0838C24.1826 16.1045 23.997 16.1069 23.8225 16.1484C22.4931 16.4669 21.713 17.5982 21.8803 18.9577C21.9193 19.2786 22.2001 19.4934 22.5199 19.447C22.7934 19.408 22.9875 19.0919 22.9301 18.7917C22.9057 18.6672 22.8715 18.5366 22.8862 18.4146C23.0082 17.4042 24.3511 16.7952 25.186 17.3871C25.3533 17.5055 25.5046 17.7324 25.54 17.9314C25.584 18.1766 25.6707 18.3524 25.8831 18.4415C26.1004 18.5318 26.3225 18.4756 26.4922 18.3158C26.6692 18.1498 26.6778 17.9411 26.6082 17.7105C26.3103 16.7183 25.4717 16.1106 24.3633 16.0838Z" fill="white"/>
<path d="M25.1996 26.4304C24.1363 26.4231 23.2647 25.531 23.2733 24.4595C23.2818 23.3124 24.1339 22.4643 25.2667 22.4777C26.3483 22.4899 27.204 23.3429 27.2016 24.4058C27.1979 25.5395 26.3104 26.4377 25.1996 26.4304Z" fill="white"/>
<path d="M14.7903 24.4216C14.7903 23.3196 15.6289 22.4996 16.7667 22.4922C17.8043 22.4849 18.6954 23.3953 18.6942 24.4606C18.6942 25.5638 17.8373 26.4315 16.7496 26.4315C15.8377 26.4327 14.739 25.7274 14.7903 24.4216Z" fill="white"/>
<path d="M15.1652 15.9082C15.2958 16.4012 15.4948 16.832 15.8732 17.1627C16.2834 17.5215 16.7448 17.7424 17.3003 17.7643C17.7825 17.7826 18.2708 17.7875 18.7432 17.8754C19.4439 18.0048 19.8797 18.5332 19.9554 19.241C19.9847 19.5204 20.0042 19.8011 20.0311 20.1257C19.5196 20.1257 19.0398 20.1257 18.5515 20.1257C18.1108 18.7064 17.1098 18.3025 16.1772 18.3611C15.2323 18.4197 14.4596 19.1433 14.1227 20.3039C13.5709 20.3942 13.1693 20.0549 13.2682 19.518C13.5172 18.1683 14.0153 16.9345 15.0639 15.9851C15.0834 15.968 15.1066 15.9521 15.1652 15.9082Z" fill="white"/>
<path d="M17.3611 20.1959C16.6775 20.2252 15.9927 20.2545 15.3018 20.2837C15.4226 19.7505 15.8181 19.4503 16.3467 19.4551C16.7886 19.4612 17.377 19.8347 17.3611 20.1959Z" fill="white"/>
<path d="M24.3633 16.0847C25.4717 16.1116 26.3104 16.7193 26.6082 17.7114C26.6778 17.9421 26.668 18.1508 26.4922 18.3167C26.3226 18.4766 26.1004 18.5327 25.8831 18.4424C25.6695 18.3533 25.584 18.1776 25.5401 17.9323C25.5047 17.7334 25.3533 17.5064 25.1861 17.388C24.3511 16.7974 23.0083 17.4051 22.8862 18.4156C22.8715 18.5376 22.9057 18.6682 22.9301 18.7927C22.9875 19.0929 22.7934 19.4089 22.52 19.448C22.2001 19.4944 21.9194 19.2796 21.8803 18.9586C21.7143 17.5992 22.4931 16.4667 23.8225 16.1494C23.9971 16.1067 24.1826 16.1055 24.3633 16.0847Z" fill="#2260FF"/>
</svg>
