<svg width="40" height="40" viewBox="0 0 40 40" fill="none" xmlns="http://www.w3.org/2000/svg">
<rect width="40" height="40" rx="20" fill="#FCFCFC"/>
<path d="M30.5 14.0001C30.5 13.2044 30.1839 12.4413 29.6213 11.8787C29.0587 11.3161 28.2956 11.0001 27.5 11.0001H26.75V10.2711C26.75 9.86755 26.4397 9.52115 26.0361 9.50099C25.9347 9.49611 25.8333 9.51186 25.7382 9.5473C25.6431 9.58274 25.5561 9.63712 25.4826 9.70716C25.4091 9.77719 25.3506 9.86142 25.3106 9.95474C25.2706 10.0481 25.25 10.1485 25.25 10.2501V11.0001H14.75V10.2711C14.75 9.86755 14.4397 9.52115 14.0361 9.50099C13.9347 9.49611 13.8333 9.51186 13.7382 9.5473C13.6431 9.58274 13.5561 9.63712 13.4826 9.70716C13.4091 9.77719 13.3506 9.86142 13.3106 9.95474C13.2706 10.0481 13.25 10.1485 13.25 10.2501V11.0001H12.5C11.7044 11.0001 10.9413 11.3161 10.3787 11.8787C9.81607 12.4413 9.5 13.2044 9.5 14.0001V14.5626C9.5 14.6123 9.51975 14.66 9.55492 14.6951C9.59008 14.7303 9.63777 14.7501 9.6875 14.7501H30.3125C30.3622 14.7501 30.4099 14.7303 30.4451 14.6951C30.4802 14.66 30.5 14.6123 30.5 14.5626V14.0001Z" fill="#0A0A0A"/>
<path d="M9.5 27.5001C9.5 28.2957 9.81607 29.0588 10.3787 29.6214C10.9413 30.184 11.7044 30.5001 12.5 30.5001H27.5C28.2956 30.5001 29.0587 30.184 29.6213 29.6214C30.1839 29.0588 30.5 28.2957 30.5 27.5001V16.3907C30.5 16.3534 30.4852 16.3176 30.4588 16.2912C30.4324 16.2649 30.3967 16.2501 30.3594 16.2501H9.64062C9.60333 16.2501 9.56756 16.2649 9.54119 16.2912C9.51482 16.3176 9.5 16.3534 9.5 16.3907V27.5001ZM25.625 17.7501C25.8475 17.7501 26.065 17.816 26.25 17.9396C26.435 18.0633 26.5792 18.239 26.6644 18.4445C26.7495 18.6501 26.7718 18.8763 26.7284 19.0945C26.685 19.3128 26.5778 19.5132 26.4205 19.6705C26.2632 19.8279 26.0627 19.935 25.8445 19.9784C25.6262 20.0218 25.4 19.9996 25.1945 19.9144C24.9889 19.8293 24.8132 19.6851 24.6896 19.5001C24.566 19.3151 24.5 19.0976 24.5 18.8751C24.5 18.5767 24.6185 18.2905 24.8295 18.0796C25.0405 17.8686 25.3266 17.7501 25.625 17.7501ZM25.625 21.5001C25.8475 21.5001 26.065 21.566 26.25 21.6897C26.435 21.8133 26.5792 21.989 26.6644 22.1945C26.7495 22.4001 26.7718 22.6263 26.7284 22.8445C26.685 23.0628 26.5778 23.2632 26.4205 23.4205C26.2632 23.5779 26.0627 23.685 25.8445 23.7284C25.6262 23.7718 25.4 23.7496 25.1945 23.6644C24.9889 23.5793 24.8132 23.4351 24.6896 23.2501C24.566 23.0651 24.5 22.8476 24.5 22.6251C24.5 22.3267 24.6185 22.0405 24.8295 21.8296C25.0405 21.6186 25.3266 21.5001 25.625 21.5001ZM21.875 17.7501C22.0975 17.7501 22.315 17.816 22.5 17.9396C22.685 18.0633 22.8292 18.239 22.9144 18.4445C22.9995 18.6501 23.0218 18.8763 22.9784 19.0945C22.935 19.3128 22.8278 19.5132 22.6705 19.6705C22.5132 19.8279 22.3127 19.935 22.0945 19.9784C21.8762 20.0218 21.65 19.9996 21.4445 19.9144C21.2389 19.8293 21.0632 19.6851 20.9396 19.5001C20.816 19.3151 20.75 19.0976 20.75 18.8751C20.75 18.5767 20.8685 18.2905 21.0795 18.0796C21.2905 17.8686 21.5766 17.7501 21.875 17.7501ZM21.875 21.5001C22.0975 21.5001 22.315 21.566 22.5 21.6897C22.685 21.8133 22.8292 21.989 22.9144 22.1945C22.9995 22.4001 23.0218 22.6263 22.9784 22.8445C22.935 23.0628 22.8278 23.2632 22.6705 23.4205C22.5132 23.5779 22.3127 23.685 22.0945 23.7284C21.8762 23.7718 21.65 23.7496 21.4445 23.6644C21.2389 23.5793 21.0632 23.4351 20.9396 23.2501C20.816 23.0651 20.75 22.8476 20.75 22.6251C20.75 22.3267 20.8685 22.0405 21.0795 21.8296C21.2905 21.6186 21.5766 21.5001 21.875 21.5001ZM21.875 25.2501C22.0975 25.2501 22.315 25.316 22.5 25.4397C22.685 25.5633 22.8292 25.739 22.9144 25.9445C22.9995 26.1501 23.0218 26.3763 22.9784 26.5945C22.935 26.8128 22.8278 27.0132 22.6705 27.1705C22.5132 27.3279 22.3127 27.435 22.0945 27.4784C21.8762 27.5218 21.65 27.4996 21.4445 27.4144C21.2389 27.3293 21.0632 27.1851 20.9396 27.0001C20.816 26.8151 20.75 26.5976 20.75 26.3751C20.75 26.0767 20.8685 25.7905 21.0795 25.5796C21.2905 25.3686 21.5766 25.2501 21.875 25.2501ZM18.125 21.5001C18.3475 21.5001 18.565 21.566 18.75 21.6897C18.935 21.8133 19.0792 21.989 19.1644 22.1945C19.2495 22.4001 19.2718 22.6263 19.2284 22.8445C19.185 23.0628 19.0778 23.2632 18.9205 23.4205C18.7632 23.5779 18.5627 23.685 18.3445 23.7284C18.1262 23.7718 17.9 23.7496 17.6945 23.6644C17.4889 23.5793 17.3132 23.4351 17.1896 23.2501C17.066 23.0651 17 22.8476 17 22.6251C17 22.3267 17.1185 22.0405 17.3295 21.8296C17.5405 21.6186 17.8266 21.5001 18.125 21.5001ZM18.125 25.2501C18.3475 25.2501 18.565 25.316 18.75 25.4397C18.935 25.5633 19.0792 25.739 19.1644 25.9445C19.2495 26.1501 19.2718 26.3763 19.2284 26.5945C19.185 26.8128 19.0778 27.0132 18.9205 27.1705C18.7632 27.3279 18.5627 27.435 18.3445 27.4784C18.1262 27.5218 17.9 27.4996 17.6945 27.4144C17.4889 27.3293 17.3132 27.1851 17.1896 27.0001C17.066 26.8151 17 26.5976 17 26.3751C17 26.0767 17.1185 25.7905 17.3295 25.5796C17.5405 25.3686 17.8266 25.2501 18.125 25.2501ZM14.375 21.5001C14.5975 21.5001 14.815 21.566 15 21.6897C15.185 21.8133 15.3292 21.989 15.4144 22.1945C15.4995 22.4001 15.5218 22.6263 15.4784 22.8445C15.435 23.0628 15.3278 23.2632 15.1705 23.4205C15.0132 23.5779 14.8127 23.685 14.5945 23.7284C14.3762 23.7718 14.15 23.7496 13.9445 23.6644C13.7389 23.5793 13.5632 23.4351 13.4396 23.2501C13.316 23.0651 13.25 22.8476 13.25 22.6251C13.25 22.3267 13.3685 22.0405 13.5795 21.8296C13.7905 21.6186 14.0766 21.5001 14.375 21.5001ZM14.375 25.2501C14.5975 25.2501 14.815 25.316 15 25.4397C15.185 25.5633 15.3292 25.739 15.4144 25.9445C15.4995 26.1501 15.5218 26.3763 15.4784 26.5945C15.435 26.8128 15.3278 27.0132 15.1705 27.1705C15.0132 27.3279 14.8127 27.435 14.5945 27.4784C14.3762 27.5218 14.15 27.4996 13.9445 27.4144C13.7389 27.3293 13.5632 27.1851 13.4396 27.0001C13.316 26.8151 13.25 26.5976 13.25 26.3751C13.25 26.0767 13.3685 25.7905 13.5795 25.5796C13.7905 25.3686 14.0766 25.2501 14.375 25.2501Z" fill="#0A0A0A"/>
</svg>
