<svg width="24" height="25" viewBox="0 0 24 25" fill="none" xmlns="http://www.w3.org/2000/svg">
<path d="M21 4.8877H3C2.60218 4.8877 2.22064 5.04573 1.93934 5.32704C1.65804 5.60834 1.5 5.98987 1.5 6.3877V18.3877C1.5 18.7855 1.65804 19.1671 1.93934 19.4484C2.22064 19.7297 2.60218 19.8877 3 19.8877H21C21.3978 19.8877 21.7794 19.7297 22.0607 19.4484C22.342 19.1671 22.5 18.7855 22.5 18.3877V6.3877C22.5 5.98987 22.342 5.60834 22.0607 5.32704C21.7794 5.04573 21.3978 4.8877 21 4.8877ZM19.35 6.3877L12 11.4727L4.65 6.3877H19.35ZM3 18.3877V7.0702L11.5725 13.0027C11.698 13.0898 11.8472 13.1365 12 13.1365C12.1528 13.1365 12.302 13.0898 12.4275 13.0027L21 7.0702V18.3877H3Z" fill="#111111"/>
</svg>
