<svg width="24" height="25" viewBox="0 0 24 25" fill="none" xmlns="http://www.w3.org/2000/svg">
<g clip-path="url(#clip0_3551_4416)">
<path d="M20.8472 15.6308L16.4306 13.6518L16.4184 13.6461C16.1892 13.5481 15.939 13.5087 15.6907 13.5316C15.4424 13.5546 15.2037 13.639 14.9963 13.7774C14.9718 13.7935 14.9484 13.8111 14.9259 13.8299L12.6441 15.7752C11.1984 15.073 9.70595 13.5918 9.00376 12.1649L10.9519 9.84833C10.9706 9.82489 10.9884 9.80145 11.0053 9.77614C11.1407 9.56923 11.2229 9.33206 11.2445 9.08574C11.2661 8.83941 11.2264 8.59157 11.1291 8.36426V8.35301L9.14438 3.92895C9.0157 3.63201 8.79444 3.38465 8.51362 3.2238C8.2328 3.06295 7.9075 2.99723 7.58626 3.03645C6.31592 3.20361 5.14986 3.82748 4.30588 4.79154C3.4619 5.7556 2.99771 6.99391 3.00001 8.2752C3.00001 15.719 9.05626 21.7752 16.5 21.7752C17.7813 21.7775 19.0196 21.3133 19.9837 20.4693C20.9477 19.6253 21.5716 18.4593 21.7388 17.189C21.7781 16.8678 21.7125 16.5426 21.5518 16.2618C21.3911 15.981 21.144 15.7597 20.8472 15.6308ZM16.5 20.2752C13.3185 20.2717 10.2682 19.0063 8.01856 16.7566C5.76888 14.507 4.50348 11.4567 4.50001 8.2752C4.49648 7.35972 4.82631 6.47426 5.42789 5.78418C6.02947 5.09409 6.86167 4.64658 7.76907 4.5252C7.7687 4.52894 7.7687 4.53271 7.76907 4.53645L9.73782 8.9427L7.80001 11.2621C7.78034 11.2847 7.76247 11.3088 7.74657 11.3343C7.60549 11.5507 7.52273 11.8 7.5063 12.0579C7.48988 12.3158 7.54035 12.5735 7.65282 12.8061C8.5022 14.5433 10.2525 16.2805 12.0084 17.129C12.2428 17.2404 12.502 17.2891 12.7608 17.2704C13.0196 17.2516 13.2692 17.1661 13.485 17.0221C13.5091 17.0059 13.5322 16.9883 13.5544 16.9696L15.8334 15.0252L20.2397 16.9986C20.2397 16.9986 20.2472 16.9986 20.25 16.9986C20.1301 17.9073 19.6833 18.7412 18.9931 19.3443C18.3028 19.9473 17.4166 20.2783 16.5 20.2752Z" fill="black"/>
</g>
<defs>
<clipPath id="clip0_3551_4416">
<rect width="24" height="24" fill="white" transform="translate(0 0.775146)"/>
</clipPath>
</defs>
</svg>
