<svg width="23" height="22" viewBox="0 0 23 22" fill="none" xmlns="http://www.w3.org/2000/svg">
<path fill-rule="evenodd" clip-rule="evenodd" d="M6.23886 5.67426C5.92991 5.90316 5.87982 6.32068 6.12698 6.6068L9.58964 10.6154L6.12698 14.624C5.87982 14.9102 5.92991 15.3277 6.23886 15.5566C6.5478 15.7855 6.99861 15.7391 7.24577 15.453L11.0664 11.0299C11.2757 10.7876 11.2757 10.4433 11.0664 10.201L7.24577 5.77788C6.99861 5.49175 6.5478 5.44536 6.23886 5.67426Z" fill="#2260FF"/>
<path opacity="0.4" fill-rule="evenodd" clip-rule="evenodd" d="M11.9698 5.67426C11.6609 5.90316 11.6108 6.32068 11.8579 6.6068L15.3206 10.6154L11.8579 14.624C11.6108 14.9102 11.6609 15.3277 11.9698 15.5566C12.2788 15.7855 12.7296 15.7391 12.9767 15.453L16.7974 11.0299C17.0067 10.7876 17.0067 10.4433 16.7974 10.201L12.9767 5.77788C12.7296 5.49175 12.2788 5.44536 11.9698 5.67426Z" fill="#2260FF"/>
</svg>
