<svg width="25" height="25" viewBox="0 0 25 25" fill="none" xmlns="http://www.w3.org/2000/svg">
<path d="M15.6519 25C15.9281 25 16.1519 24.7761 16.1519 24.5C16.1519 24.2239 15.9281 24 15.6519 24V24.5V25ZM8.7623 19.2974H8.2623C8.2623 19.316 8.26334 19.3347 8.26543 19.3532L8.7623 19.2974ZM15.6432 24C15.367 24 15.1432 24.2239 15.1432 24.5C15.1432 24.7761 15.367 25 15.6432 25V24.5V24ZM22.5328 19.2974H23.0328V19.2974L22.5328 19.2974ZM23.0328 14.8333C23.0328 14.5572 22.8089 14.3333 22.5328 14.3333C22.2566 14.3333 22.0328 14.5572 22.0328 14.8333H22.5328H23.0328ZM9.2623 15.8248C9.2623 15.5486 9.03844 15.3248 8.7623 15.3248C8.48615 15.3248 8.2623 15.5486 8.2623 15.8248H8.7623H9.2623ZM16.6311 3.78116H17.1311C17.1311 3.76886 17.1307 3.75656 17.1298 3.74429L16.6311 3.78116ZM8.56557 15.8333V15.3333V15.8333ZM14.0386 1.33333C13.7625 1.33333 13.5386 1.55719 13.5386 1.83333C13.5386 2.10948 13.7625 2.33333 14.0386 2.33333V1.83333V1.33333ZM0.5 3.78116L0.00136134 3.74429C0.000454098 3.75656 0 3.76886 0 3.78116H0.5ZM3.09251 2.33333C3.36865 2.33333 3.59251 2.10948 3.59251 1.83333C3.59251 1.55719 3.36865 1.33333 3.09251 1.33333V1.83333V2.33333ZM15.6519 24.5V24H15.6476V24.5V25H15.6519V24.5ZM15.6476 24.5L15.6478 24C12.1878 23.998 9.51758 21.539 9.25916 19.2415L8.7623 19.2974L8.26543 19.3532C8.59194 22.2562 11.7856 24.9978 15.6473 25L15.6476 24.5ZM15.6432 24.5V25H15.6476V24.5V24H15.6432V24.5ZM15.6476 24.5L15.6478 25C17.5809 24.9989 19.4082 24.3785 20.7623 23.3666C22.1142 22.3563 23.0328 20.9214 23.0328 19.2974H22.5328H22.0328C22.0328 20.5218 21.3391 21.6872 20.1637 22.5655C18.9903 23.4424 17.375 23.999 15.6473 24L15.6476 24.5ZM22.5328 19.2974L23.0328 19.2974L23.0328 14.8333H22.5328H22.0328L22.0328 19.2974H22.5328ZM8.7623 19.2974H9.2623V15.8248H8.7623H8.2623V19.2974H8.7623ZM16.6311 3.78116H16.1311V9.01594H16.6311H17.1311V3.78116H16.6311ZM16.6311 9.01594H16.1311C16.1311 12.4294 12.826 15.3333 8.56557 15.3333V15.8333V16.3333C13.2141 16.3333 17.1311 13.1327 17.1311 9.01594H16.6311ZM16.6311 3.78116L17.1298 3.74429C17.0979 3.3132 16.8962 2.71187 16.4087 2.21399C15.908 1.70254 15.1385 1.33333 14.0386 1.33333V1.83333V2.33333C14.8976 2.33333 15.4003 2.6134 15.6941 2.91355C16.0013 3.22726 16.1164 3.59984 16.1325 3.81803L16.6311 3.78116ZM0.5 3.78116H0V9.01594H0.5H1V3.78116H0.5ZM0.5 9.01594H0C0 13.1327 3.91703 16.3333 8.56557 16.3333V15.8333V15.3333C4.30513 15.3333 1 12.4294 1 9.01594H0.5ZM0.5 3.78116L0.998639 3.81803C1.01477 3.59984 1.12987 3.22726 1.437 2.91355C1.73085 2.6134 2.23354 2.33333 3.09251 2.33333V1.83333V1.33333C1.99269 1.33333 1.22314 1.70254 0.72243 2.21399C0.234998 2.71187 0.0332373 3.3132 0.00136134 3.74429L0.5 3.78116ZM6.0082 1.66667H5.5082C5.5082 1.96035 5.19645 2.33333 4.63115 2.33333V2.83333V3.33333C5.58689 3.33333 6.5082 2.66164 6.5082 1.66667H6.0082ZM4.63115 2.83333V2.33333C4.06585 2.33333 3.7541 1.96035 3.7541 1.66667H3.2541H2.7541C2.7541 2.66164 3.6754 3.33333 4.63115 3.33333V2.83333ZM3.2541 1.66667H3.7541C3.7541 1.37298 4.06585 1 4.63115 1V0.5V0C3.6754 0 2.7541 0.671689 2.7541 1.66667H3.2541ZM4.63115 0.5V1C5.19645 1 5.5082 1.37298 5.5082 1.66667H6.0082H6.5082C6.5082 0.671689 5.58689 0 4.63115 0V0.5ZM13.877 1.66667H13.377C13.377 1.96035 13.0653 2.33333 12.5 2.33333V2.83333V3.33333C13.4557 3.33333 14.377 2.66164 14.377 1.66667H13.877ZM12.5 2.83333V2.33333C11.9347 2.33333 11.623 1.96035 11.623 1.66667H11.123H10.623C10.623 2.66164 11.5443 3.33333 12.5 3.33333V2.83333ZM11.123 1.66667H11.623C11.623 1.37298 11.9347 1 12.5 1V0.5V0C11.5443 0 10.623 0.671689 10.623 1.66667H11.123ZM12.5 0.5V1C13.0653 1 13.377 1.37298 13.377 1.66667H13.877H14.377C14.377 0.671689 13.4557 0 12.5 0V0.5ZM24.5 13H24C24 13.6619 23.336 14.3333 22.3361 14.3333V14.8333V15.3333C23.7264 15.3333 25 14.3632 25 13H24.5ZM22.3361 14.8333V14.3333C21.3362 14.3333 20.6721 13.6619 20.6721 13H20.1721H19.6721C19.6721 14.3632 20.9457 15.3333 22.3361 15.3333V14.8333ZM20.1721 13H20.6721C20.6721 12.3381 21.3362 11.6667 22.3361 11.6667V11.1667V10.6667C20.9457 10.6667 19.6721 11.6368 19.6721 13H20.1721ZM22.3361 11.1667V11.6667C23.336 11.6667 24 12.3381 24 13H24.5H25C25 11.6368 23.7264 10.6667 22.3361 10.6667V11.1667Z" fill="#0D61EC" fill-opacity="0.8"/>
</svg>
