<svg width="32" height="32" viewBox="0 0 32 32" fill="none" xmlns="http://www.w3.org/2000/svg">
<path d="M24.95 15.825H25.625C26.8873 15.825 27.5177 15.825 27.9875 16.0964C28.2953 16.2741 28.5509 16.5297 28.7287 16.8375C29 17.3073 29 17.9378 29 19.2C29 20.4623 29 21.0927 28.7287 21.5625C28.5509 21.8703 28.2953 22.1259 27.9875 22.3037C27.5177 22.575 26.8873 22.575 25.625 22.575H24.95M6.05 15.825H5.375C4.11275 15.825 3.4823 15.825 3.0125 16.0964C2.70469 16.2741 2.44907 16.5297 2.27135 16.8375C2 17.3073 2 17.9378 2 19.2C2 20.4623 2 21.0927 2.27135 21.5625C2.44907 21.8703 2.70469 22.1259 3.0125 22.3037C3.4823 22.575 4.11275 22.575 5.375 22.575H6.05M14.15 11.1H16.85C20.6678 11.1 22.5781 11.1 23.7634 12.2867C24.95 13.472 24.95 15.3822 24.95 19.2C24.95 23.0178 24.95 24.9281 23.7634 26.1133C22.5781 27.3 20.6678 27.3 16.85 27.3H15.5C15.5 27.3 14.825 30 10.1 30C10.1 30 11.45 28.6378 11.45 27.277C9.35345 27.2136 8.102 26.98 7.23665 26.1133C6.05 24.9281 6.05 23.0178 6.05 19.2C6.05 15.3822 6.05 13.472 7.23665 12.2867C8.42195 11.1 10.3322 11.1 14.15 11.1Z" stroke="#DADADA" stroke-width="1.5" stroke-linejoin="round"/>
<path d="M17.5251 5.02499C17.5251 5.56206 17.3118 6.07712 16.932 6.45688C16.5522 6.83664 16.0372 7.04999 15.5001 7.04999C14.963 7.04999 14.448 6.83664 14.0682 6.45688C13.6884 6.07712 13.4751 5.56206 13.4751 5.02499C13.4751 4.48793 13.6884 3.97287 14.0682 3.59311C14.448 3.21335 14.963 3 15.5001 3C16.0372 3 16.5522 3.21335 16.932 3.59311C17.3118 3.97287 17.5251 4.48793 17.5251 5.02499Z" stroke="#DADADA" stroke-width="1.5"/>
<path d="M15.5002 7.05005V11.1M11.4502 16.5V17.85M19.5502 16.5V17.85" stroke="#DADADA" stroke-width="1.5" stroke-linecap="round" stroke-linejoin="round"/>
<path d="M12.7998 22.575C12.7998 22.575 13.7003 23.2499 15.4998 23.2499C17.2994 23.2499 18.1998 22.575 18.1998 22.575" stroke="#DADADA" stroke-width="1.5" stroke-linecap="round"/>
</svg>
