<svg width="97" height="106" viewBox="0 0 97 106" fill="none" xmlns="http://www.w3.org/2000/svg">
<g clip-path="url(#clip0_3927_501)">
<rect x="64.1754" width="42" height="102" rx="21" transform="rotate(38.9889 64.1754 0)" fill="white"/>
<path d="M51.5617 44.7818C21.7866 37.0268 28.185 -9.78222 1.82154 -14.5077C-11.69 -20.0852 -39.2113 -31.0539 -41.2043 -30.3089C-43.1973 -29.5639 -69.5572 1.31926 -82.488 16.6677L52.6914 180.491C77.2988 172.629 127.27 149.585 130.295 120.305C134.077 83.7047 81.3368 52.5369 51.5617 44.7818Z" fill="#2496FF" fill-opacity="0.45"/>
<path d="M75.343 64.4056C50.32 57.8907 55.7021 18.5487 33.546 14.5797C22.1911 9.89331 -0.937343 0.677198 -2.61239 1.30352C-4.28743 1.92984 -26.444 27.8887 -37.3128 40.7899L76.279 178.464C96.9604 171.854 138.96 152.482 141.505 127.872C144.687 97.1108 100.366 70.9205 75.343 64.4056Z" fill="#2260FF"/>
</g>
<rect x="63.8792" y="-2.81288" width="46" height="106" rx="23" transform="rotate(38.9889 63.8792 -2.81288)" stroke="#2260FF" stroke-width="4"/>
<defs>
<clipPath id="clip0_3927_501">
<rect x="64.1754" width="42" height="102" rx="21" transform="rotate(38.9889 64.1754 0)" fill="white"/>
</clipPath>
</defs>
</svg>
