<svg width="26" height="26" viewBox="0 0 26 26" fill="none" xmlns="http://www.w3.org/2000/svg">
<path d="M15.1501 0.75V3.15M15.1501 3.15V5.55M15.1501 3.15H10.3501M10.3501 3.15V0.75M10.3501 3.15V5.55" stroke="#0D61EC" stroke-opacity="0.8" stroke-width="1.5" stroke-linecap="round"/>
<path d="M1.9502 24.75V12.006C1.9502 7.80241 1.9502 5.70001 3.3338 4.39321C4.2134 3.56281 5.4338 3.26041 7.35019 3.15001M23.5502 24.75V12.006C23.5502 7.80241 23.5502 5.70001 22.1666 4.39321C21.287 3.56281 20.0666 3.26041 18.1502 3.15001" stroke="#0D61EC" stroke-opacity="0.8" stroke-width="1.5" stroke-linecap="round" stroke-linejoin="round"/>
<path d="M15.15 10.35H17.55M15.15 15.15H17.55M6.75 15.15H9.15M6.75 10.35H9.15" stroke="#0D61EC" stroke-opacity="0.8" stroke-width="1.5" stroke-linecap="round"/>
<path d="M0.75 24.75H9.75M24.75 24.75H15.75" stroke="#0D61EC" stroke-opacity="0.8" stroke-width="1.5" stroke-linecap="round" stroke-linejoin="round"/>
<path d="M9.75 24.75V21.75C9.75 20.628 9.75 20.0676 9.9912 19.65C10.1492 19.3764 10.3764 19.1492 10.65 18.9912C11.0676 18.75 11.628 18.75 12.75 18.75C13.872 18.75 14.4324 18.75 14.85 18.9912C15.1236 19.1492 15.3508 19.3764 15.5088 19.65C15.75 20.0676 15.75 20.628 15.75 21.75V24.75" stroke="#0D61EC" stroke-opacity="0.8" stroke-width="1.5" stroke-linecap="round"/>
</svg>
