<svg width="32" height="32" viewBox="0 0 32 32" fill="none" xmlns="http://www.w3.org/2000/svg">
<circle cx="16" cy="16" r="16" fill="#D9D9D9"/>
<path d="M17.8002 6V7.79993M17.8002 7.79993V9.59986M17.8002 7.79993H14.2002M14.2002 7.79993V6M14.2002 7.79993V9.59986" stroke="#111111" stroke-width="1.5" stroke-linecap="round"/>
<path d="M7.90039 24V14.4424C7.90039 11.2898 7.90039 9.71306 8.93809 8.73299C9.59779 8.11022 10.5131 7.88343 11.9504 7.80063M24.1004 24V14.4424C24.1004 11.2898 24.1004 9.71306 23.0627 8.73299C22.403 8.11022 21.4877 7.88343 20.0504 7.80063" stroke="#111111" stroke-width="1.5" stroke-linecap="round" stroke-linejoin="round"/>
<path d="M17.8002 13.1992H19.6002M17.8002 16.7991H19.6002M11.5002 16.7991H13.3002M11.5002 13.1992H13.3002" stroke="#111111" stroke-width="1.5" stroke-linecap="round"/>
<path d="M7 23.9996H13.75M25 23.9996H18.25" stroke="#111111" stroke-width="1.5" stroke-linecap="round" stroke-linejoin="round"/>
<path d="M13.7502 23.9995V21.7496C13.7502 20.9081 13.7502 20.4879 13.9311 20.1747C14.0496 19.9695 14.22 19.7991 14.4252 19.6806C14.7384 19.4997 15.1587 19.4997 16.0002 19.4997C16.8417 19.4997 17.262 19.4997 17.5752 19.6806C17.7804 19.7991 17.9508 19.9695 18.0693 20.1747C18.2502 20.4879 18.2502 20.9081 18.2502 21.7496V23.9995" stroke="#111111" stroke-width="1.5" stroke-linecap="round"/>
</svg>
