<svg width="16" height="15" viewBox="0 0 16 15" fill="none" xmlns="http://www.w3.org/2000/svg">
<path d="M16 14.2227H0V0H16V14.2227Z" stroke="#E5E7EB"/>
<path d="M3.11111 2.66669C2.375 2.66669 1.77778 3.26392 1.77778 4.00003V7.11114H4.44444V4.00003C4.44444 3.26392 3.84722 2.66669 3.11111 2.66669ZM0 4.00003C0 2.28058 1.39167 0.888916 3.11111 0.888916C4.83056 0.888916 6.22222 2.28058 6.22222 4.00003V10.2222C6.22222 11.9417 4.83056 13.3334 3.11111 13.3334C1.39167 13.3334 0 11.9417 0 10.2222V4.00003ZM15.4139 11.0945C15.2167 11.4361 14.7556 11.4584 14.475 11.1806L9.26389 5.96947C8.98611 5.69169 9.00556 5.22781 9.35 5.03058C10 4.65836 10.7528 4.44447 11.5556 4.44447C14.0111 4.44447 16 6.43336 16 8.88892C16 9.69169 15.7861 10.4445 15.4139 11.0945ZM13.7611 12.7472C13.1111 13.1195 12.3583 13.3334 11.5556 13.3334C9.1 13.3334 7.11111 11.3445 7.11111 8.88892C7.11111 8.08614 7.325 7.33336 7.69722 6.68336C7.89444 6.34169 8.35556 6.31947 8.63611 6.59725L13.8472 11.8084C14.125 12.0861 14.1056 12.55 13.7611 12.7472Z" fill="#F9783C"/>
</svg>
