<svg width="18" height="16" viewBox="0 0 18 16" fill="none" xmlns="http://www.w3.org/2000/svg">
<path d="M18 16H0V0H18V16Z" stroke="#E5E7EB"/>
<path d="M17 15.1116H1V0.888916H17V15.1116Z" stroke="#E5E7EB"/>
<path d="M4.11111 3.55561C3.375 3.55561 2.77778 4.15283 2.77778 4.88894V8.00005H5.44444V4.88894C5.44444 4.15283 4.84722 3.55561 4.11111 3.55561ZM1 4.88894C1 3.1695 2.39167 1.77783 4.11111 1.77783C5.83056 1.77783 7.22222 3.1695 7.22222 4.88894V11.1112C7.22222 12.8306 5.83056 14.2223 4.11111 14.2223C2.39167 14.2223 1 12.8306 1 11.1112V4.88894ZM16.4139 11.9834C16.2167 12.3251 15.7556 12.3473 15.475 12.0695L10.2639 6.85839C9.98611 6.58061 10.0056 6.11672 10.35 5.9195C11 5.54728 11.7528 5.33339 12.5556 5.33339C15.0111 5.33339 17 7.32228 17 9.77783C17 10.5806 16.7861 11.3334 16.4139 11.9834ZM14.7611 13.6362C14.1111 14.0084 13.3583 14.2223 12.5556 14.2223C10.1 14.2223 8.11111 12.2334 8.11111 9.77783C8.11111 8.97505 8.325 8.22228 8.69722 7.57228C8.89444 7.23061 9.35556 7.20839 9.63611 7.48617L14.8472 12.6973C15.125 12.9751 15.1056 13.4389 14.7611 13.6362Z" fill="#F9783C"/>
</svg>
