<svg width="34" height="34" viewBox="0 0 34 34" fill="none" xmlns="http://www.w3.org/2000/svg">
<circle cx="16.75" cy="16.75" r="16.25" fill="white" stroke="#E2E2E2"/>
<path d="M12.1261 23.078V16.5274L10.0945 14.6688L8.27277 13.6375V21.922C8.27277 22.5616 8.791 23.078 9.42878 23.078H12.1261Z" fill="#4285F4"/>
<path d="M21.3739 23.0779H24.0712C24.7109 23.0779 25.2272 22.5596 25.2272 21.9219V13.6375L23.1638 14.8188L21.3739 16.5273V23.0779Z" fill="#34A853"/>
<path d="M12.126 16.5273L11.8496 13.9678L12.126 11.5181L16.75 14.986L21.3739 11.5181L21.6832 13.8355L21.3739 16.5273L16.75 19.9953L12.126 16.5273Z" fill="#EA4335"/>
<path d="M21.3739 11.5181V16.5274L25.2272 13.6374V12.0961C25.2272 10.6666 23.5953 9.85162 22.4529 10.7089L21.3739 11.5181Z" fill="#FBBC04"/>
<path d="M8.27277 13.6375L10.045 14.9667L12.1261 16.5274V11.5182L11.0471 10.709C9.90264 9.85159 8.27277 10.6666 8.27277 12.0961V13.6374V13.6375Z" fill="#C5221F"/>
</svg>
