<svg width="23" height="23" viewBox="0 0 23 23" fill="none" xmlns="http://www.w3.org/2000/svg">
<path fill-rule="evenodd" clip-rule="evenodd" d="M7.64687 7.86655C7.64687 7.45233 7.98266 7.11655 8.39687 7.11655L14.7608 7.11655C15.175 7.11655 15.5108 7.45233 15.5108 7.86655L15.5108 14.2305C15.5108 14.6447 15.175 14.9805 14.7608 14.9805C14.3466 14.9805 14.0108 14.6447 14.0108 14.2305L14.0108 8.61655L8.39687 8.61655C7.98266 8.61655 7.64687 8.28076 7.64687 7.86655Z" fill="#111111"/>
<path fill-rule="evenodd" clip-rule="evenodd" d="M7.33621 15.2912C7.04332 14.9983 7.04332 14.5234 7.33621 14.2305L13.7886 7.77816C14.0815 7.48527 14.5563 7.48527 14.8492 7.77816C15.1421 8.07105 15.1421 8.54593 14.8492 8.83882L8.39687 15.2912C8.10398 15.5841 7.62911 15.5841 7.33621 15.2912Z" fill="#111111"/>
</svg>
