<svg width="18" height="23" viewBox="0 0 18 23" fill="none" xmlns="http://www.w3.org/2000/svg">
<path d="M1.75298 15.8752C1.55394 15.851 1.36514 15.8463 1.18563 15.8017C0.447144 15.6195 -0.0206881 14.8533 0.000703843 14.2685C0.0239559 13.6214 0.00535426 12.9724 0.00628435 12.3243C0.00721443 11.4847 0.814528 10.7242 1.65439 10.7716C1.6823 10.7734 1.70927 10.7716 1.73066 10.7716C1.76972 10.3857 1.78926 10.0045 1.84878 9.6298C2.09711 8.07892 2.82165 6.7828 3.97681 5.72377C4.91806 4.86093 6.01184 4.28912 7.26559 4.03714C7.6246 3.96462 7.99199 3.92557 8.35751 3.8921C8.51748 3.87722 8.59096 3.84561 8.58538 3.66337C8.57236 3.20406 8.57422 2.74381 8.58445 2.28357C8.58724 2.14596 8.53981 2.07623 8.42634 2.00649C7.99199 1.74151 7.80783 1.26731 7.94548 0.806141C8.08965 0.321723 8.51934 -0.00277151 9.01229 1.78427e-05C9.48756 0.0028072 9.94051 0.357985 10.0679 0.828456C10.187 1.26917 9.98144 1.7694 9.56569 2.00835C9.44664 2.07716 9.40757 2.15061 9.40943 2.28636C9.41781 2.80053 9.41316 3.3147 9.41316 3.84375C11.2845 3.96369 12.9084 4.62198 14.2384 5.94227C15.5778 7.27187 16.2074 8.89992 16.2214 10.7809C16.3786 10.7902 16.5181 10.7865 16.6529 10.8097C17.4277 10.9454 17.9197 11.4168 17.969 12.196C18.0174 12.9649 18.0071 13.7432 17.9523 14.5121C17.9048 15.1778 17.3635 15.6846 16.6994 15.8045C16.5702 15.8277 16.439 15.8426 16.2874 15.864C16.1051 18.023 15.1183 19.7561 13.3725 21.0485C11.93 22.1168 10.306 22.6031 8.50725 22.4943C5.28637 22.2981 1.93807 19.717 1.75298 15.8752ZM11.849 10.3764C11.7439 10.1319 11.6286 9.89107 11.5365 9.64189C11.4621 9.44012 11.544 9.25789 11.7188 9.16305C11.8965 9.06635 12.089 9.09703 12.2211 9.26532C12.2918 9.35551 12.342 9.46709 12.3811 9.5768C12.515 9.95244 12.7522 10.2546 13.1381 10.3457C13.539 10.4406 13.9594 10.474 14.3724 10.4852C14.6607 10.4926 14.8774 10.2369 14.8551 9.94035C14.8346 9.66792 14.7835 9.38992 14.6988 9.13051C14.1408 7.42342 12.9707 6.29187 11.3394 5.60383C11.2157 5.55176 11.0845 5.51922 10.9487 5.47459C10.9227 5.61592 10.9041 5.73121 10.879 5.84465C10.7069 6.64519 10.2391 7.23281 9.5536 7.65773C9.31085 7.80742 9.06437 7.73862 8.92858 7.50152C8.81232 7.2979 8.88487 7.08498 9.11739 6.93993C9.21133 6.88136 9.30992 6.8265 9.39548 6.75676C9.87355 6.36625 10.1182 5.86231 10.1293 5.22355C8.30449 4.92323 6.68522 5.3844 5.20452 6.4146C5.28544 7.26257 5.6026 7.75814 6.22297 7.70979C6.22762 7.6912 6.23506 7.6726 6.23785 7.65215C6.37829 6.67494 7.22188 5.90694 8.21614 5.97575C8.45424 5.99248 8.57329 6.10684 8.58166 6.35789C8.59003 6.61265 8.47935 6.75119 8.25055 6.7735C8.13243 6.78466 8.01524 6.7986 7.89712 6.81069C7.50462 6.85067 7.06097 7.27466 7.08608 7.72188C7.10376 7.72653 7.12329 7.73397 7.14282 7.73583C8.2459 7.84461 8.91742 8.63493 9.00485 9.59447C9.02624 9.83342 9.04763 10.0724 9.06902 10.3095C10.0177 10.3327 10.9422 10.355 11.849 10.3764ZM12.1997 15.1378C13.0461 15.1434 13.7222 14.4591 13.725 13.5953C13.7269 12.7846 13.0758 12.1346 12.2508 12.1263C11.3877 12.117 10.7385 12.7622 10.732 13.6362C10.7255 14.4526 11.3896 15.1323 12.1997 15.1378ZM4.26886 13.6065C4.2298 14.6014 5.0678 15.1388 5.76164 15.1388C6.59128 15.1378 7.24327 14.4777 7.24327 13.6372C7.24327 12.8255 6.56524 12.1319 5.77467 12.1374C4.90783 12.1421 4.26793 12.7669 4.26886 13.6065ZM4.5544 7.12031C4.50975 7.15471 4.49208 7.16587 4.4772 7.17982C3.67826 7.90226 3.29878 8.8432 3.10905 9.87154C3.03371 10.2806 3.33878 10.5382 3.7601 10.4703C4.01588 9.5861 4.60555 9.03567 5.32544 8.99011C6.03695 8.94548 6.79869 9.25324 7.13445 10.3336C7.50648 10.3336 7.87201 10.3336 8.26171 10.3336C8.24125 10.0863 8.22637 9.87247 8.20405 9.65955C8.14731 9.12028 7.81434 8.71861 7.28047 8.61912C6.92146 8.55218 6.5485 8.54846 6.18111 8.53451C5.75792 8.51778 5.40635 8.34949 5.09384 8.07613C4.80552 7.82416 4.65391 7.49594 4.5544 7.12031ZM6.22762 10.3876C6.23971 10.1124 5.79234 9.82691 5.45472 9.82413C5.05199 9.81948 4.75064 10.0491 4.65857 10.4554C5.18499 10.4331 5.70584 10.4108 6.22762 10.3876Z" fill="#2260FF"/>
<path d="M11.849 10.376C10.9422 10.3546 10.0177 10.3323 9.06994 10.309C9.04855 10.0719 9.02809 9.83296 9.00577 9.59401C8.91834 8.63354 8.24682 7.84322 7.14374 7.73536C7.12421 7.73351 7.10468 7.72607 7.087 7.72142C7.06189 7.27419 7.50554 6.85021 7.89804 6.81023C8.01616 6.79814 8.13335 6.78512 8.25147 6.77304C8.48027 6.75072 8.59095 6.61218 8.58258 6.35742C8.57421 6.10638 8.45516 5.99202 8.21706 5.97528C7.2228 5.90555 6.37921 6.67448 6.23877 7.65168C6.23598 7.67121 6.22854 7.69074 6.22389 7.70933C5.60259 7.75768 5.28636 7.26303 5.20544 6.41414C6.68614 5.38487 8.30448 4.92277 10.1302 5.22309C10.1181 5.86185 9.87447 6.36486 9.3964 6.7563C9.31084 6.82604 9.21318 6.88089 9.11831 6.93947C8.88486 7.08452 8.81231 7.29744 8.9295 7.50106C9.06529 7.73815 9.31177 7.80696 9.55452 7.65726C10.24 7.23328 10.7078 6.64566 10.8799 5.84418C10.9041 5.72982 10.9227 5.61453 10.9496 5.47413C11.0854 5.51876 11.2166 5.5513 11.3403 5.60337C12.9716 6.29141 14.1417 7.42296 14.6997 9.13004C14.7844 9.39038 14.8355 9.66746 14.856 9.93989C14.8783 10.2356 14.6607 10.4922 14.3733 10.4847C13.9603 10.4736 13.539 10.4401 13.1391 10.3453C12.7531 10.2542 12.5159 9.95197 12.382 9.57634C12.3429 9.46662 12.2927 9.35505 12.222 9.26486C12.0899 9.09564 11.8974 9.06589 11.7198 9.16259C11.5449 9.25742 11.463 9.43966 11.5375 9.64142C11.6277 9.89154 11.7439 10.1324 11.849 10.376ZM11.5626 7.25467C11.4249 7.27047 11.2835 7.27233 11.1505 7.30394C10.1377 7.54662 9.54336 8.40853 9.67078 9.44431C9.70054 9.68884 9.91446 9.85248 10.1581 9.81715C10.3665 9.7874 10.5144 9.54659 10.4707 9.31786C10.452 9.22302 10.426 9.12353 10.4372 9.03056C10.5302 8.26069 11.5533 7.79673 12.1894 8.24768C12.3169 8.33787 12.4322 8.51081 12.4592 8.66236C12.4927 8.84925 12.5587 8.98314 12.7205 9.05101C12.8861 9.11981 13.0554 9.07704 13.1846 8.95524C13.3195 8.82879 13.326 8.6698 13.273 8.49407C13.0461 7.73815 12.4071 7.27512 11.5626 7.25467Z" fill="white"/>
<path d="M12.1998 15.1379C11.3897 15.1323 10.7256 14.4527 10.7321 13.6363C10.7386 12.7623 11.3878 12.1161 12.2509 12.1263C13.075 12.1356 13.727 12.7856 13.7251 13.5954C13.7223 14.4592 13.0462 15.1435 12.1998 15.1379Z" fill="white"/>
<path d="M4.2689 13.6067C4.2689 12.7671 4.90786 12.1423 5.7747 12.1368C6.56527 12.1312 7.24423 12.8248 7.2433 13.6365C7.2433 14.477 6.59039 15.1381 5.76168 15.1381C5.06691 15.139 4.22983 14.6016 4.2689 13.6067Z" fill="white"/>
<path d="M4.55444 7.12036C4.65396 7.49599 4.80556 7.82421 5.09389 8.07618C5.4064 8.34954 5.75797 8.51783 6.18116 8.53456C6.54854 8.54851 6.92058 8.55223 7.28052 8.61917C7.81439 8.71773 8.14643 9.12033 8.20409 9.6596C8.22641 9.87252 8.2413 10.0864 8.26176 10.3337C7.87205 10.3337 7.50653 10.3337 7.1345 10.3337C6.79873 9.25236 6.03607 8.9446 5.32548 8.98923C4.6056 9.03386 4.01685 9.58522 3.76015 10.4694C3.33975 10.5383 3.03375 10.2798 3.10909 9.87067C3.29883 8.84232 3.6783 7.90231 4.47724 7.17894C4.49213 7.16592 4.5098 7.15383 4.55444 7.12036Z" fill="white"/>
<path d="M6.22762 10.3877C5.70677 10.41 5.185 10.4323 4.65857 10.4546C4.75065 10.0483 5.052 9.81957 5.45472 9.82329C5.79141 9.82794 6.23971 10.1124 6.22762 10.3877Z" fill="white"/>
<path d="M11.5625 7.25513C12.407 7.27558 13.046 7.73862 13.2729 8.49453C13.3259 8.67026 13.3185 8.82925 13.1845 8.9557C13.0553 9.07751 12.886 9.12028 12.7204 9.05147C12.5577 8.9836 12.4926 8.84971 12.4591 8.66282C12.4321 8.51127 12.3168 8.33833 12.1894 8.24814C11.5532 7.79812 10.5301 8.26115 10.4371 9.03102C10.4259 9.12399 10.452 9.22348 10.4706 9.31832C10.5143 9.54705 10.3664 9.78786 10.1581 9.81761C9.91437 9.85295 9.70045 9.6893 9.67069 9.44477C9.5442 8.40899 10.1376 7.54615 11.1505 7.30441C11.2835 7.27186 11.4248 7.27093 11.5625 7.25513Z" fill="#2260FF"/>
</svg>
