<svg width="32" height="32" viewBox="0 0 32 32" fill="none" xmlns="http://www.w3.org/2000/svg">
<circle cx="16" cy="16" r="16" fill="#D9D9D9"/>
<path d="M16.0005 10.2944C15.4294 10.2944 14.8816 10.0682 14.4778 9.6655C14.0739 9.26282 13.847 8.71667 13.847 8.1472C13.847 7.57773 14.0739 7.03158 14.4778 6.6289C14.8816 6.22622 15.4294 6 16.0005 6C16.5716 6 17.1194 6.22622 17.5232 6.6289C17.9271 7.03158 18.154 7.57773 18.154 8.1472C18.154 8.71667 17.9271 9.26282 17.5232 9.6655C17.1194 10.0682 16.5716 10.2944 16.0005 10.2944ZM16.0005 10.2944V24M18.5655 15.5C18.8103 15.4962 19.0522 15.5517 19.2708 15.6615C19.4893 15.7714 19.6779 15.9324 19.8204 16.1308C19.9629 16.3291 20.0551 16.559 20.089 16.8007C20.123 17.0423 20.0977 17.2886 20.0154 17.5184" stroke="#111111" stroke-width="1.5" stroke-linecap="round" stroke-linejoin="round"/>
<path d="M17.9748 9H24.3044C26.4522 9 23.3416 14.1624 18.871 12.44M14.0233 9H7.69532C5.54828 9 8.65812 14.1624 13.1287 12.44M13.4344 15.5C13.0309 15.4959 12.6423 15.6516 12.3537 15.9327C12.065 16.2139 11.9 16.5977 11.8947 17C11.8968 17.4099 12.0586 17.8029 12.3459 18.096C12.6332 18.3892 13.0235 18.5596 13.4344 18.5712H17.5391C17.9389 18.5841 18.3179 18.7515 18.5961 19.038C18.8743 19.3245 19.0299 19.7076 19.0299 20.1064C19.0299 20.5052 18.8743 20.8883 18.5961 21.1748C18.3179 21.4613 17.9389 21.6287 17.5391 21.6416H14.7173C14.369 21.65 14.0383 21.7958 13.7976 22.047C13.557 22.2982 13.426 22.6343 13.4336 22.9816C13.4322 23.1681 13.4693 23.3529 13.5426 23.5246C13.6159 23.6962 13.7238 23.8509 13.8596 23.9792" stroke="#111111" stroke-width="1.5" stroke-linecap="round" stroke-linejoin="round"/>
</svg>
