<svg width="26" height="26" viewBox="0 0 26 26" fill="none" xmlns="http://www.w3.org/2000/svg">
<path d="M12.7504 6.47587C11.9889 6.47587 11.2586 6.17424 10.7201 5.63733C10.1817 5.10043 9.87915 4.37223 9.87915 3.61293C9.87915 2.85364 10.1817 2.12544 10.7201 1.58853C11.2586 1.05163 11.9889 0.75 12.7504 0.75C13.5119 0.75 14.2423 1.05163 14.7807 1.58853C15.3192 2.12544 15.6217 2.85364 15.6217 3.61293C15.6217 4.37223 15.3192 5.10043 14.7807 5.63733C14.2423 6.17424 13.5119 6.47587 12.7504 6.47587ZM12.7504 6.47587V24.75M16.1705 13.4167C16.4968 13.4117 16.8194 13.4855 17.1108 13.632C17.4022 13.7785 17.6536 13.9932 17.8436 14.2577C18.0336 14.5222 18.1565 14.8287 18.2018 15.1509C18.2471 15.4731 18.2134 15.8015 18.1036 16.1079" stroke="#0D61EC" stroke-opacity="0.8" stroke-width="1.5" stroke-linecap="round" stroke-linejoin="round"/>
<path d="M15.3828 4.75H23.8222C26.686 4.75 22.5385 11.6332 16.5777 9.33667M10.1142 4.75H1.67685C-1.18587 4.75 2.96058 11.6332 8.92136 9.33667M9.32894 13.4167C8.79096 13.4113 8.27277 13.6187 7.88796 13.9936C7.50314 14.3685 7.2831 14.8803 7.27604 15.4167C7.27888 15.9632 7.49459 16.4872 7.87763 16.8781C8.26067 17.2689 8.78107 17.4961 9.32894 17.5116H14.8019C15.3349 17.5288 15.8403 17.7519 16.2112 18.1339C16.5822 18.5159 16.7896 19.0268 16.7896 19.5585C16.7896 20.0903 16.5822 20.6011 16.2112 20.9831C15.8403 21.3651 15.3349 21.5883 14.8019 21.6055H11.0395C10.5751 21.6167 10.1341 21.811 9.81324 22.146C9.49237 22.4809 9.31782 22.9291 9.32787 23.3921C9.32601 23.6408 9.37548 23.8873 9.4732 24.1161C9.57093 24.3449 9.71481 24.5512 9.89592 24.7223" stroke="#0D61EC" stroke-opacity="0.8" stroke-width="1.5" stroke-linecap="round" stroke-linejoin="round"/>
</svg>
