<svg width="24" height="27" viewBox="0 0 24 27" fill="none" xmlns="http://www.w3.org/2000/svg">
<path d="M16.0833 0.75V6.08333M8.08333 0.75V6.08333M8.08333 12.75H0.773112M0.773112 12.75C0.757501 13.1778 0.75 13.6221 0.75 14.0833C0.75 20.6292 2.27125 23.7523 6.75 24.8888M0.773112 12.75C1.0508 5.14036 3.87794 2.75 12.0833 2.75C19.2405 2.75 22.3057 4.56865 23.1564 10.0833M20.0833 14.75C20.0833 16.2227 18.8894 17.4166 17.4167 17.4166C15.9439 17.4166 14.75 16.2227 14.75 14.75C14.75 13.2772 15.9439 12.0833 17.4167 12.0833C18.8894 12.0833 20.0833 13.2772 20.0833 14.75ZM13.75 25.4167H21.0833C22.0038 25.4167 22.75 24.6705 22.75 23.75C22.75 21.0295 18.75 21.0834 17.4167 21.0834C16.0833 21.0834 12.0833 21.0295 12.0833 23.75C12.0833 24.6705 12.8295 25.4167 13.75 25.4167Z" stroke="#DADADA" stroke-width="1.5" stroke-linecap="round" stroke-linejoin="round"/>
</svg>
