<svg width="40" height="40" viewBox="0 0 40 40" fill="none" xmlns="http://www.w3.org/2000/svg">
<rect width="40" height="40" rx="20" fill="#FCFCFC"/>
<path d="M29.4073 27.7527L24.9969 23.3422C26.0587 21.9286 26.6319 20.208 26.63 18.44C26.63 13.9241 22.9559 10.25 18.44 10.25C13.9241 10.25 10.25 13.9241 10.25 18.44C10.25 22.9559 13.9241 26.63 18.44 26.63C20.208 26.6319 21.9286 26.0587 23.3422 24.9969L27.7527 29.4073C27.9759 29.6069 28.2671 29.7135 28.5664 29.7051C28.8658 29.6967 29.1506 29.574 29.3623 29.3623C29.574 29.1506 29.6967 28.8658 29.7051 28.5664C29.7135 28.2671 29.6069 27.9759 29.4073 27.7527ZM12.59 18.44C12.59 17.283 12.9331 16.1519 13.5759 15.1899C14.2187 14.2279 15.1324 13.4781 16.2013 13.0353C17.2703 12.5925 18.4465 12.4767 19.5813 12.7024C20.7161 12.9281 21.7584 13.4853 22.5766 14.3034C23.3947 15.1216 23.9519 16.1639 24.1776 17.2987C24.4033 18.4335 24.2875 19.6098 23.8447 20.6787C23.4019 21.7476 22.6521 22.6613 21.6901 23.3041C20.7281 23.9469 19.597 24.29 18.44 24.29C16.8891 24.2881 15.4022 23.6712 14.3055 22.5745C13.2088 21.4778 12.5919 19.9909 12.59 18.44Z" fill="#000064"/>
</svg>
