<svg width="20" height="21" viewBox="0 0 20 21" fill="none" xmlns="http://www.w3.org/2000/svg">
<path d="M7.76404 3.68288C8.46642 3.49494 9.2123 3.3877 9.99998 3.3877C13.7574 3.3877 16.564 5.8281 18.2326 7.82704C19.4848 9.32706 19.4846 11.4486 18.2324 12.9486C18.0406 13.1784 17.8337 13.4141 17.612 13.6512M10.5 7.42918C11.7563 7.63994 12.7478 8.63144 12.9585 9.8877M1 1.3877L19 19.3877M9.50001 13.3462C8.41583 13.1643 7.52884 12.4009 7.17072 11.3877M2.34914 7.16592C2.14213 7.38893 1.94821 7.61043 1.76762 7.82677C0.515422 9.32676 0.515227 11.4483 1.76739 12.9483C3.43604 14.9473 6.24263 17.3877 10 17.3877C10.8021 17.3877 11.5608 17.2765 12.2744 17.0821" stroke="black" stroke-width="1.5" stroke-linecap="round" stroke-linejoin="round"/>
</svg>
