<svg width="24" height="25" viewBox="0 0 24 25" fill="none" xmlns="http://www.w3.org/2000/svg">
<g clip-path="url(#clip0_3551_3817)">
<path d="M20 13.9877V12.3877C20 11.9634 19.8315 11.5564 19.5314 11.2564C19.2314 10.9563 18.8244 10.7877 18.4 10.7877H2.40005C1.9757 10.7877 1.56874 10.9563 1.26868 11.2564C0.96862 11.5564 0.800049 11.9634 0.800049 12.3877V21.9877C0.800049 22.4121 0.96862 22.8191 1.26868 23.1191C1.56874 23.4192 1.9757 23.5877 2.40005 23.5877H18.4C18.8244 23.5877 19.2314 23.4192 19.5314 23.1191C19.8315 22.8191 20 22.4121 20 21.9877V20.3877M20 13.9877H13.6C12.7514 13.9877 11.9374 14.3249 11.3373 14.925C10.7372 15.5251 10.4 16.339 10.4 17.1877C10.4 18.0364 10.7372 18.8504 11.3373 19.4505C11.9374 20.0506 12.7514 20.3877 13.6 20.3877H20M20 13.9877C20.8487 13.9877 21.6627 14.3249 22.2628 14.925C22.8629 15.5251 23.2 16.339 23.2 17.1877C23.2 18.0364 22.8629 18.8504 22.2628 19.4505C21.6627 20.0506 20.8487 20.3877 20 20.3877M5.60005 10.7877V5.98774C5.60005 4.7147 6.10576 3.49381 7.00593 2.59363C7.90611 1.69346 9.12701 1.18774 10.4 1.18774C11.6731 1.18774 12.894 1.69346 13.7942 2.59363C14.6943 3.49381 15.2 4.7147 15.2 5.98774V10.7877M19.2 17.1877H20.8M16 17.1877H17.6M12.8 17.1877H14.4" stroke="#111111"/>
</g>
<defs>
<clipPath id="clip0_3551_3817">
<rect width="24" height="24" fill="white" transform="translate(0 0.387695)"/>
</clipPath>
</defs>
</svg>
