<svg width="9" height="9" viewBox="0 0 9 9" fill="none" xmlns="http://www.w3.org/2000/svg">
<path fill-rule="evenodd" clip-rule="evenodd" d="M0.530295 0.750092C0.530295 0.335878 0.866081 9.18844e-05 1.28029 9.1758e-05L7.64426 9.1347e-05C8.05847 9.20214e-05 8.39426 0.335878 8.39426 0.750091L8.39426 7.11405C8.39426 7.52827 8.05847 7.86405 7.64426 7.86405C7.23004 7.86405 6.89426 7.52827 6.89426 7.11405L6.89426 1.50009L1.28029 1.50009C0.866081 1.50009 0.530295 1.16431 0.530295 0.750092Z" fill="white"/>
<path fill-rule="evenodd" clip-rule="evenodd" d="M0.219635 8.17471C-0.0732585 7.88182 -0.0732585 7.40695 0.219635 7.11405L6.67198 0.661703C6.96488 0.368811 7.43975 0.36881 7.73264 0.661703C8.02554 0.954597 8.02554 1.42947 7.73264 1.72236L1.28029 8.17471C0.987402 8.46761 0.512528 8.46761 0.219635 8.17471Z" fill="white"/>
</svg>
