<svg width="42" height="42" viewBox="0 0 42 42" fill="none" xmlns="http://www.w3.org/2000/svg">
<rect width="42" height="42" rx="21" fill="white"/>
<path d="M11.4883 27.3985C11.2271 27.3668 10.9792 27.3607 10.7436 27.3021C9.77438 27.0629 9.16035 26.0574 9.18842 25.2898C9.21894 24.4404 9.19453 23.5886 9.19575 22.738C9.19697 21.6361 10.2566 20.6378 11.3589 20.7001C11.3955 20.7025 11.4309 20.7001 11.459 20.7001C11.5103 20.1936 11.5359 19.6933 11.614 19.2015C11.94 17.166 12.8909 15.4648 14.4071 14.0748C15.6425 12.9424 17.078 12.1918 18.7236 11.8611C19.1948 11.7659 19.677 11.7147 20.1567 11.6708C20.3667 11.6512 20.4631 11.6097 20.4558 11.3706C20.4387 10.7677 20.4412 10.1636 20.4546 9.55956C20.4583 9.37895 20.396 9.28743 20.2471 9.1959C19.677 8.8481 19.4353 8.22573 19.6159 7.62044C19.8052 6.98464 20.3691 6.55874 21.0161 6.5624C21.6399 6.56606 22.2344 7.03223 22.4017 7.64973C22.5579 8.22817 22.2881 8.88471 21.7425 9.19834C21.5862 9.28865 21.5349 9.38505 21.5374 9.56322C21.5484 10.2381 21.5423 10.9129 21.5423 11.6073C23.9984 11.7647 26.1298 12.6287 27.8754 14.3616C29.6333 16.1067 30.4597 18.2435 30.4781 20.7123C30.6844 20.7245 30.8675 20.7196 31.0445 20.7501C32.0613 20.9283 32.7071 21.547 32.7718 22.5696C32.8353 23.5789 32.8219 24.6003 32.7498 25.6095C32.6876 26.4833 31.9771 27.1484 31.1055 27.3058C30.9358 27.3363 30.7637 27.3558 30.5647 27.3839C30.3255 30.2175 29.0303 32.4922 26.7389 34.1885C24.8456 35.5907 22.7142 36.2289 20.3533 36.0861C16.1259 35.8287 11.7312 32.441 11.4883 27.3985ZM24.7394 20.1814C24.6014 19.8605 24.4501 19.5444 24.3292 19.2174C24.2315 18.9525 24.339 18.7134 24.5685 18.5889C24.8016 18.462 25.0543 18.5022 25.2277 18.7231C25.3204 18.8415 25.3864 18.9879 25.4376 19.1319C25.6134 19.6249 25.9247 20.0216 26.4313 20.1412C26.9574 20.2656 27.5092 20.3096 28.0512 20.3242C28.4297 20.334 28.7141 19.9984 28.6848 19.6091C28.6579 19.2515 28.5908 18.8866 28.4797 18.5462C27.7473 16.3056 26.2116 14.8205 24.0704 13.9174C23.9081 13.8491 23.7359 13.8064 23.5577 13.7478C23.5235 13.9333 23.4991 14.0846 23.4661 14.2335C23.2403 15.2842 22.6263 16.0554 21.7266 16.6131C21.408 16.8096 21.0845 16.7193 20.9063 16.4081C20.7537 16.1409 20.8489 15.8614 21.1541 15.671C21.2774 15.5942 21.4068 15.5222 21.5191 15.4306C22.1465 14.9181 22.4676 14.2567 22.4822 13.4183C20.0871 13.0241 17.9618 13.6294 16.0184 14.9815C16.1246 16.0945 16.5409 16.7449 17.3551 16.6815C17.3612 16.6571 17.371 16.6327 17.3747 16.6058C17.559 15.3232 18.6662 14.3152 19.9712 14.4055C20.2837 14.4275 20.4399 14.5776 20.4509 14.9071C20.4619 15.2415 20.3166 15.4233 20.0163 15.4526C19.8613 15.4672 19.7075 15.4855 19.5525 15.5014C19.0373 15.5539 18.455 16.1104 18.488 16.6973C18.5112 16.7034 18.5368 16.7132 18.5625 16.7157C20.0102 16.8584 20.8916 17.8957 21.0064 19.1551C21.0344 19.4687 21.0625 19.7824 21.0906 20.0936C22.3357 20.1241 23.5492 20.1534 24.7394 20.1814ZM25.1996 26.4308C26.3105 26.4381 27.1979 25.5399 27.2016 24.4062C27.204 23.3421 26.3495 22.4891 25.2667 22.4781C24.1339 22.4659 23.2818 23.3128 23.2733 24.4599C23.2647 25.5314 24.1363 26.4235 25.1996 26.4308ZM14.7904 24.4209C14.7391 25.7267 15.839 26.432 16.7497 26.432C17.8386 26.4308 18.6943 25.5644 18.6943 24.4612C18.6943 23.3958 17.8044 22.4854 16.7667 22.4928C15.629 22.4989 14.7892 23.3189 14.7904 24.4209ZM15.1651 15.9078C15.1065 15.9529 15.0834 15.9676 15.0638 15.9859C14.0152 16.9341 13.5172 18.1691 13.2681 19.5188C13.1692 20.0557 13.5696 20.3938 14.1226 20.3047C14.4583 19.1441 15.2323 18.4217 16.1771 18.3619C17.111 18.3033 18.1108 18.7072 18.5515 20.1253C19.0398 20.1253 19.5195 20.1253 20.031 20.1253C20.0041 19.8007 19.9846 19.52 19.9553 19.2405C19.8808 18.5327 19.4438 18.0056 18.7431 17.875C18.2719 17.7871 17.7824 17.7822 17.3002 17.7639C16.7448 17.742 16.2833 17.5211 15.8732 17.1623C15.4947 16.8316 15.2958 16.4008 15.1651 15.9078ZM17.3612 20.1961C17.3771 19.8348 16.7899 19.4602 16.3468 19.4565C15.8182 19.4504 15.4227 19.7519 15.3019 20.2852C15.9928 20.2559 16.6764 20.2266 17.3612 20.1961Z" fill="#2260FF"/>
<path d="M24.7392 20.1805C23.549 20.1524 22.3356 20.1231 21.0917 20.0926C21.0636 19.7814 21.0368 19.4678 21.0075 19.1541C20.8927 17.8935 20.0113 16.8562 18.5635 16.7147C18.5379 16.7122 18.5123 16.7025 18.4891 16.6964C18.4561 16.1094 19.0384 15.5529 19.5536 15.5004C19.7086 15.4846 19.8624 15.4675 20.0174 15.4516C20.3177 15.4223 20.463 15.2405 20.452 14.9061C20.441 14.5766 20.2848 14.4265 19.9723 14.4046C18.6673 14.313 17.5601 15.3223 17.3758 16.6048C17.3721 16.6305 17.3623 16.6561 17.3562 16.6805C16.5408 16.744 16.1257 16.0947 16.0195 14.9806C17.9629 13.6297 20.087 13.0231 22.4833 13.4173C22.4675 14.2557 22.1476 14.9159 21.5202 15.4297C21.4079 15.5212 21.2797 15.5932 21.1552 15.6701C20.8488 15.8604 20.7535 16.1399 20.9074 16.4072C21.0856 16.7183 21.4091 16.8086 21.7277 16.6122C22.6274 16.0557 23.2414 15.2844 23.4672 14.2325C23.499 14.0824 23.5234 13.9311 23.5588 13.7468C23.737 13.8054 23.9091 13.8481 24.0715 13.9164C26.2127 14.8195 27.7484 16.3046 28.4808 18.5452C28.5919 18.8869 28.659 19.2506 28.6859 19.6081C28.7152 19.9962 28.4295 20.333 28.0523 20.3232C27.5103 20.3086 26.9573 20.2647 26.4324 20.1402C25.9258 20.0206 25.6145 19.624 25.4387 19.131C25.3875 18.987 25.3215 18.8405 25.2288 18.7221C25.0554 18.5 24.8027 18.461 24.5696 18.5879C24.3401 18.7124 24.2326 18.9516 24.3303 19.2164C24.4487 19.5447 24.6013 19.8607 24.7392 20.1805ZM24.3633 16.0838C24.1826 16.1045 23.997 16.1069 23.8225 16.1484C22.4931 16.4669 21.713 17.5982 21.8803 18.9577C21.9193 19.2786 22.2001 19.4934 22.5199 19.447C22.7934 19.408 22.9875 19.0919 22.9301 18.7917C22.9057 18.6672 22.8715 18.5366 22.8862 18.4146C23.0082 17.4042 24.3511 16.7952 25.186 17.3871C25.3533 17.5055 25.5046 17.7324 25.54 17.9314C25.584 18.1766 25.6707 18.3524 25.8831 18.4415C26.1004 18.5318 26.3225 18.4756 26.4922 18.3158C26.6692 18.1498 26.6778 17.9411 26.6082 17.7105C26.3103 16.7183 25.4717 16.1106 24.3633 16.0838Z" fill="white"/>
<path d="M25.1998 26.4304C24.1366 26.4231 23.265 25.531 23.2735 24.4595C23.282 23.3124 24.1341 22.4643 25.267 22.4777C26.3485 22.4899 27.2043 23.3429 27.2018 24.4058C27.1982 25.5395 26.3107 26.4377 25.1998 26.4304Z" fill="white"/>
<path d="M14.7903 24.4216C14.7903 23.3196 15.6289 22.4996 16.7667 22.4922C17.8043 22.4849 18.6954 23.3953 18.6942 24.4606C18.6942 25.5638 17.8373 26.4315 16.7496 26.4315C15.8377 26.4327 14.739 25.7274 14.7903 24.4216Z" fill="white"/>
<path d="M15.165 15.9082C15.2956 16.4012 15.4946 16.832 15.873 17.1627C16.2832 17.5215 16.7446 17.7424 17.3 17.7643C17.7822 17.7826 18.2705 17.7875 18.7429 17.8754C19.4436 18.0048 19.8794 18.5332 19.9551 19.241C19.9844 19.5204 20.004 19.8011 20.0308 20.1257C19.5193 20.1257 19.0396 20.1257 18.5513 20.1257C18.1106 18.7064 17.1096 18.3025 16.177 18.3611C15.2321 18.4197 14.4594 19.1433 14.1225 20.3039C13.5707 20.3942 13.1691 20.0549 13.2679 19.518C13.517 18.1683 14.015 16.9345 15.0636 15.9851C15.0832 15.968 15.1064 15.9521 15.165 15.9082Z" fill="white"/>
<path d="M17.3611 20.1959C16.6775 20.2252 15.9927 20.2545 15.3018 20.2837C15.4226 19.7505 15.8181 19.4503 16.3467 19.4551C16.7886 19.4612 17.377 19.8347 17.3611 20.1959Z" fill="white"/>
<path d="M24.3635 16.0847C25.472 16.1116 26.3106 16.7193 26.6085 17.7114C26.678 17.9421 26.6683 18.1508 26.4925 18.3167C26.3228 18.4766 26.1006 18.5327 25.8833 18.4424C25.6697 18.3533 25.5843 18.1776 25.5403 17.9323C25.5049 17.7334 25.3535 17.5064 25.1863 17.388C24.3513 16.7974 23.0085 17.4051 22.8864 18.4156C22.8718 18.5376 22.906 18.6682 22.9304 18.7927C22.9878 19.0929 22.7937 19.4089 22.5202 19.448C22.2004 19.4944 21.9196 19.2796 21.8806 18.9586C21.7145 17.5992 22.4934 16.4667 23.8227 16.1494C23.9973 16.1067 24.1829 16.1055 24.3635 16.0847Z" fill="#2260FF"/>
</svg>
