<svg width="17" height="13" viewBox="0 0 17 13" fill="none" xmlns="http://www.w3.org/2000/svg">
<path d="M3.85328 12.7189V6.16825L1.82174 4.30969L0 3.27832V11.5629C0 12.2025 0.518235 12.7189 1.15601 12.7189H3.85328Z" fill="#4285F4"/>
<path d="M13.1016 12.7193H15.7988C16.4385 12.7193 16.9548 12.201 16.9548 11.5633V3.27881L14.8914 4.46012L13.1016 6.16867V12.7193Z" fill="#34A853"/>
<path d="M3.85261 6.16841L3.57617 3.60889L3.85261 1.15918L8.47652 4.62715L13.1004 1.15918L13.4097 3.47663L13.1004 6.16841L8.47652 9.63638L3.85261 6.16841Z" fill="#EA4335"/>
<path d="M13.1016 1.15924V6.16847L16.9548 3.27854V1.73721C16.9548 0.307676 15.323 -0.507262 14.1806 0.350061L13.1016 1.15924Z" fill="#FBBC04"/>
<path d="M0 3.27857L1.7722 4.60777L3.85328 6.1685V1.15927L2.7743 0.350092C1.62987 -0.507298 0 0.307706 0 1.73717V3.2785V3.27857Z" fill="#C5221F"/>
</svg>
