<svg width="128" height="149" viewBox="0 0 128 149" fill="none" xmlns="http://www.w3.org/2000/svg">
<rect width="128" height="128" rx="64" fill="#2260FF"/>
<path d="M8.82984 96.4147C8.77263 96.3194 8.71541 96.224 8.6582 96.1286C15.2565 93.1723 22.0837 91.0361 28.4913 89.186C30.1123 88.7282 31.8287 88.2514 33.6403 87.7937C36.2148 87.1452 38.9991 86.4967 41.9168 85.9054C44.5867 85.3523 47.371 84.8373 50.2506 84.3796C55.0372 83.5976 60.0909 82.9681 65.2589 82.5295C65.9836 82.4722 66.7083 82.415 67.4329 82.3578C68.4246 82.2815 69.3972 82.2243 70.3888 82.1861C83.6999 81.4995 97.4878 82.3769 109.483 86.1724C114.117 87.6411 117.817 90.1015 120.887 93.3821C120.868 93.4393 120.83 93.4965 120.792 93.5537C120.296 94.5074 119.781 95.442 119.228 96.3766C118.98 96.7962 118.732 97.2349 118.465 97.6545C118.332 97.8834 118.198 98.0932 118.046 98.322C117.969 98.4556 117.874 98.5891 117.779 98.7226C117.569 99.0659 117.34 99.3901 117.111 99.7335C116.482 100.668 115.814 101.603 115.128 102.499C115.109 102.537 115.09 102.556 115.052 102.594C114.899 102.785 114.765 102.976 114.613 103.167C113.984 103.987 113.335 104.788 112.668 105.57C112.324 105.951 112 106.352 111.638 106.733C111.524 106.867 111.39 107 111.276 107.153C110.913 107.534 110.551 107.935 110.189 108.316C109.979 108.526 109.788 108.736 109.578 108.946C109.121 109.404 108.663 109.861 108.205 110.3C107.404 111.063 106.584 111.807 105.745 112.532C105.688 112.589 105.631 112.627 105.574 112.684C104.677 113.466 103.743 114.21 102.789 114.935C102.503 115.145 102.236 115.354 101.95 115.564C101.187 116.136 100.406 116.67 99.6046 117.204C98.2506 118.12 96.8585 118.978 95.4473 119.779C95.1993 119.913 94.9705 120.046 94.7226 120.18C94.3602 120.39 93.9979 120.58 93.6165 120.771C93.5021 120.828 93.3877 120.886 93.2732 120.943C92.8346 121.172 92.4151 121.381 91.9764 121.591C91.7095 121.725 91.4425 121.839 91.1755 121.973C90.4318 122.316 89.688 122.659 88.9252 122.984C88.4103 123.193 87.8954 123.403 87.3805 123.613C87.3614 123.613 87.3424 123.632 87.3233 123.632C87.1326 123.708 86.9419 123.785 86.7512 123.861C86.694 123.88 86.6368 123.899 86.5796 123.918C86.1409 124.09 85.7023 124.242 85.2828 124.395C84.1767 124.777 83.0706 125.139 81.9455 125.463C81.6975 125.539 81.4687 125.597 81.2208 125.673C81.2017 125.673 81.2017 125.673 81.1826 125.673C80.191 125.94 79.1993 126.207 78.1886 126.436C77.5402 126.588 76.8728 126.722 76.2053 126.855C75.9192 126.913 75.6523 126.97 75.3662 127.008C75.1564 127.046 74.9657 127.084 74.756 127.103C74.0122 127.237 73.2875 127.351 72.5438 127.447C72.0861 127.504 71.6284 127.561 71.1898 127.618C71.1707 127.618 71.1707 127.618 71.1517 127.618C70.8847 127.657 70.6177 127.676 70.3507 127.695C70.0837 127.714 69.8167 127.752 69.5688 127.771C69.3781 127.79 69.2065 127.809 69.0158 127.809C68.5772 127.847 68.1195 127.866 67.6809 127.905C66.4604 127.981 65.2399 128 64.0003 128C63.5998 128 63.1803 128 62.7798 127.981C62.4174 127.981 62.0551 127.962 61.7118 127.943C61.5784 127.943 61.4258 127.924 61.2923 127.924C60.5104 127.885 59.7285 127.847 58.9467 127.79C58.2983 127.733 57.6689 127.676 57.0396 127.618C56.067 127.523 55.1135 127.39 54.16 127.237C52.4627 126.97 50.7655 126.646 49.1254 126.245C47.4282 125.845 45.75 125.368 44.1099 124.834C44.0146 124.815 43.9383 124.777 43.843 124.738C42.7369 124.376 41.6689 123.975 40.601 123.556C40.4866 123.518 40.3912 123.46 40.2768 123.422C40.2577 123.403 40.2196 123.403 40.2005 123.384C39.3805 123.06 38.5795 122.717 37.7786 122.354C37.3209 122.144 36.8441 121.935 36.3864 121.706C36.1385 121.591 35.8715 121.458 35.6236 121.343C35.6046 121.343 35.6046 121.343 35.5855 121.324C35.3185 121.191 35.0515 121.057 34.8036 120.924C34.7273 120.886 34.6701 120.847 34.6129 120.828C33.7357 120.371 32.8584 119.894 32.0003 119.398C31.4091 119.055 30.8179 118.711 30.2458 118.349C30.1886 118.311 30.1314 118.273 30.0742 118.234C29.9216 118.139 29.7691 118.044 29.6165 117.948C28.5486 117.262 27.4997 116.556 26.489 115.812C26.0885 115.526 25.7071 115.24 25.3257 114.954C24.6391 114.439 23.9717 113.905 23.3233 113.352C22.7321 112.856 22.1409 112.36 21.5688 111.845C21.0158 111.349 20.4627 110.853 19.9288 110.338C19.8525 110.262 19.7571 110.186 19.6808 110.109C19.6618 110.09 19.6236 110.052 19.6046 110.033C18.6701 109.137 17.7738 108.221 16.8966 107.267C16.8394 107.21 16.7631 107.134 16.7059 107.058C16.5724 106.905 16.4389 106.771 16.3054 106.619C16.1528 106.447 16.0193 106.295 15.8668 106.123C15.5617 105.78 15.2565 105.417 14.9514 105.055C14.7607 104.826 14.57 104.597 14.3793 104.368C13.7881 103.643 13.2351 102.919 12.682 102.194C12.1671 101.507 11.6713 100.802 11.1755 100.096C10.3555 98.8942 9.57358 97.6545 8.82984 96.4147Z" fill="#13368C"/>
<path d="M79.2567 33.3584C79.2567 33.3584 83.8335 30.7072 85.1875 25.9771C86.5415 21.2469 87.2853 14.8002 81.7358 13.6177C76.1673 12.4542 65.4116 15.2007 62.2078 14.7811C59.004 14.3615 57.2686 13.0264 54.942 14.2471C52.6154 15.4678 52.1196 18.5958 52.1196 18.5958C52.1196 18.5958 48.0576 18.7484 46.8371 21.0944C45.6166 23.4404 46.7799 43.0476 47.9241 48.8649C49.0683 54.6822 56.582 55.2735 60.377 55.2162C64.172 55.1399 79.2567 33.3584 79.2567 33.3584Z" fill="black"/>
<path d="M51.204 43.5059L41.44 84.3797C41.4209 87.8128 50.5747 93.859 59.9001 94.6601C62.2266 94.8508 66.1742 94.5647 67.7761 93.2677C69.8166 91.6084 62.2648 49.1515 62.2648 49.1515L51.204 43.5059Z" fill="#D1D5DB"/>
<path d="M63.447 55.9603C64.0381 59.4698 64.7819 63.9711 65.5066 68.644C63.4279 68.0718 60.6818 67.2135 59.3087 66.0882C52.3099 60.4235 53.2062 54.7969 53.2062 54.7969L63.447 55.9603Z" fill="black"/>
<path d="M60.3195 29.907L52.8249 45.5089C50.8034 49.705 51.6616 54.7212 54.9798 57.9827C58.5078 61.435 63.9238 63.4186 68.5579 63.5139C73.4399 63.6093 77.826 62.5793 79.18 56.1326C80.9345 47.7786 81.3159 39.7297 81.5448 35.3238C81.6401 33.3211 81.2778 29.8498 80.2861 28.3049C78.7033 25.8063 75.7855 22.9072 72.8487 23.9371C66.5746 26.1305 63.4852 25.2341 60.3195 29.907Z" fill="#D1D5DB"/>
<path d="M79.104 48.884C79.104 48.884 72.4866 47.7207 67.7381 46.71C67.7381 46.71 67.433 51.1152 73.9169 52.0878C77.8072 52.6599 79.104 48.884 79.104 48.884Z" fill="white"/>
<path d="M73.2494 44.2102C74.5271 44.2102 75.7094 43.9432 76.8346 43.352C77.6928 42.9134 78.2076 44.3246 77.3686 44.7632C76.129 45.3926 74.775 45.7168 73.4019 45.6977C72.4484 45.6977 72.2959 44.2102 73.2494 44.2102Z" fill="black"/>
<path d="M69.9692 38.2212C70.1408 38.2212 70.6557 38.2021 70.8083 38.8315C70.9227 39.3082 70.9227 39.8803 70.732 40.338C70.5222 40.891 69.8547 41.1008 69.378 40.7766C68.7296 40.338 68.844 38.1831 69.9692 38.2212Z" fill="black"/>
<path d="M79.6757 38.2593C79.8473 38.2593 80.3622 38.2402 80.5148 38.8695C80.6292 39.3463 80.6292 39.9184 80.4385 40.3761C80.2287 40.9291 79.5613 41.1389 79.0845 40.8147C78.4361 40.3761 78.5506 38.2211 79.6757 38.2593Z" fill="black"/>
<path d="M72.1621 33.3003C71.6282 32.7091 70.4649 32.404 69.702 32.4803C68.9202 32.5756 67.9285 32.8998 67.3564 33.5101C67.2801 33.5673 67.2229 33.6436 67.1848 33.7199C67.0894 33.8724 67.1085 34.025 67.2038 34.1203C67.2992 34.3301 67.509 34.4827 67.8141 34.4064C69.0346 34.1013 70.4649 34.0631 71.6854 34.2157C72.2765 34.311 72.5626 33.5482 72.1621 33.3003Z" fill="black"/>
<path d="M81.4876 34.8454C81.4685 34.8072 81.4304 34.7691 81.3923 34.75C81.0871 34.5593 80.7439 34.2542 80.3625 34.0063C80.3434 33.9872 80.3053 33.9681 80.2862 33.9491C80.2671 33.9491 80.2671 33.9491 80.248 33.93C79.695 33.5676 79.1038 33.3579 78.5508 33.8346C78.4745 33.8918 78.4364 33.9681 78.4364 34.0444C78.2838 34.3114 78.3029 34.7119 78.6843 34.8454C79.5043 35.1314 80.3053 35.4365 81.0871 35.8179C81.6402 36.0849 81.9834 35.1696 81.4876 34.8454Z" fill="black"/>
<path d="M54.6748 34.694C55.3995 34.5415 59.7285 36.7727 63.8667 37.2304L64.2672 35.8573C63.2374 35.8001 55.7427 33.4735 54.6939 33.6833L54.6748 34.694Z" fill="black"/>
<path d="M83.7951 34.7898C83.1849 33.8743 82.3839 33.3021 81.5067 33.1495C81.3541 33.1304 81.2016 33.1113 81.049 33.1113C80.496 33.1113 79.962 33.283 79.4662 33.5882C79.0847 33.8361 78.7224 34.1794 78.3982 34.6181C78.3601 34.6753 78.3219 34.7135 78.2838 34.7707C77.7689 35.5336 77.4256 36.4873 77.2731 37.5172C77.2349 37.8224 77.2158 38.1276 77.1968 38.4518C77.1968 38.49 77.1968 38.5472 77.1968 38.5853C77.1968 40.0349 77.5591 41.3891 78.2456 42.419C78.9512 43.4681 79.8857 44.0593 80.9155 44.0975C80.9346 44.0975 80.9727 44.0975 80.9918 44.0975C81.2397 44.0975 81.4685 44.0593 81.7165 44.0021C82.4793 43.7923 83.1849 43.2583 83.7379 42.4381C84.4244 41.4082 84.8058 40.054 84.8058 38.6044C84.8058 37.1548 84.4817 35.8197 83.7951 34.7898ZM83.1086 41.9994C82.5365 42.8386 81.8118 43.3155 81.0299 43.3155C80.2671 43.3155 79.5234 42.8386 78.9703 41.9994C78.3791 41.103 78.0549 39.9014 78.0549 38.6235C78.0549 38.5472 78.0549 38.4709 78.0549 38.3755C78.0549 38.3564 78.0549 38.3374 78.0549 38.3183C78.1122 37.1358 78.4364 36.0677 78.9894 35.2284C79.0466 35.1522 79.0848 35.0759 79.142 35.0186C79.5043 34.5418 79.9429 34.1985 80.4006 34.0459C80.4578 34.0268 80.496 34.0078 80.5532 33.9887C80.7248 33.9505 80.8964 33.9124 81.0681 33.9124C81.2397 33.9124 81.4113 33.9315 81.5639 33.9887C82.1551 34.1413 82.689 34.58 83.1277 35.2475C83.7188 36.144 84.043 37.3456 84.043 38.6235V38.6425C84.043 39.9014 83.6998 41.103 83.1086 41.9994Z" fill="black"/>
<path d="M74.2217 37.211C74.1644 35.8377 73.6305 34.5408 72.696 33.549C71.7044 32.4999 70.3695 31.9277 68.9583 31.9277C67.547 31.9277 66.2121 32.4999 65.2205 33.5299C64.5912 34.1784 64.1525 34.9413 63.9046 35.7996C63.7711 36.2573 63.6949 36.7151 63.6758 37.211C63.6758 37.2873 63.6758 37.3445 63.6758 37.4208C63.6758 38.8894 64.2098 40.2627 65.2014 41.3117C66.1931 42.3608 67.528 42.933 68.9392 42.933C69.3969 42.933 69.8355 42.8757 70.2741 42.7613C71.4183 42.4561 72.41 41.7695 73.1156 40.8349C73.7068 40.0529 74.1072 39.0992 74.2217 38.0502C74.2407 37.8595 74.2598 37.6497 74.2598 37.459C74.2407 37.3827 74.2217 37.3064 74.2217 37.211ZM68.9392 42.1319C67.7378 42.1319 66.6317 41.636 65.7735 40.7586C64.9344 39.8622 64.4577 38.6796 64.4577 37.4399C64.4577 36.1811 64.9344 34.9985 65.7926 34.1211C66.3647 33.5299 67.0703 33.1103 67.8331 32.9005C68.081 32.8432 68.3289 32.786 68.5959 32.767C68.7103 32.767 68.8438 32.7479 68.9583 32.7479C70.1597 32.7479 71.2658 33.2438 72.1239 34.1211C72.9821 35.0176 73.4398 36.2001 73.4398 37.4399C73.4398 37.5162 73.4398 37.5925 73.4398 37.6688C73.4398 37.6878 73.4398 37.726 73.4398 37.745C73.2681 40.2055 71.3039 42.1319 68.9392 42.1319Z" fill="black"/>
<path d="M77.7499 38.6984C77.5973 38.7365 77.4257 38.6793 77.3303 38.5458C77.2922 38.4886 76.3768 37.3825 73.9358 38.1072C73.9358 38.1072 73.9358 38.1072 73.9168 38.1072C73.707 38.1644 73.4972 38.05 73.4209 37.8402C73.3637 37.6304 73.4781 37.4016 73.6879 37.3444C76.701 36.4671 77.9024 37.9928 77.9406 38.069C78.0741 38.2407 78.0359 38.5077 77.8643 38.6411C77.8452 38.6602 77.788 38.6984 77.7499 38.6984Z" fill="black"/>
<path d="M54.8467 40.5687C54.942 37.4598 54.942 36.716 54.9802 35.5525C55.0564 33.3782 54.4653 30.0404 51.1852 31.5281C46.4176 33.7024 46.6846 45.318 52.0434 46.367C56.0291 47.1681 54.7513 43.4488 54.8467 40.5687Z" fill="#D1D5DB"/>
<path d="M62.5509 88.7465C62.5509 88.7465 55.8572 87.8501 52.3673 85.733C47.2946 82.6813 43.1373 78.2754 42.3172 79.0574C40.0669 81.1936 33.564 87.6975 33.564 87.6975C33.564 87.6975 50.1933 109.403 52.2338 109.899C54.2743 110.395 63.5044 95.3649 65.9263 95.918C68.3482 96.4712 76.1098 103.566 77.1969 101.239C78.2839 98.9316 70.0646 80.8121 69.2255 80.1445C68.3673 79.477 66.9561 78.5996 66.9561 78.5996L62.5509 88.7465Z" fill="white"/>
<rect x="44" y="109" width="40" height="40" rx="20" fill="white"/>
<path d="M68 118.586L74.4142 125L71.4142 128L65 121.586L68 118.586Z" fill="#2260FF"/>
<path d="M63.5858 123L54 132.586V139H60.4142L70 129.414L63.5858 123Z" fill="#2260FF"/>
</svg>
