<svg width="64" height="64" viewBox="0 0 64 64" fill="none" xmlns="http://www.w3.org/2000/svg">
<path d="M0 32C0 14.3269 14.3269 0 32 0C49.6731 0 64 14.3269 64 32C64 49.6731 49.6731 64 32 64C14.3269 64 0 49.6731 0 32Z" fill="#2260FF"/>
<path d="M33.8663 24.6969C34.537 23.9703 34.8723 23.607 35.2287 23.395C36.0885 22.8837 37.1472 22.8678 38.0213 23.3531C38.3836 23.5542 38.7292 23.9073 39.4205 24.6135C40.1118 25.3197 40.4575 25.6728 40.6544 26.0428C41.1294 26.9358 41.1139 28.0173 40.6133 28.8956C40.4058 29.2596 40.0502 29.6022 39.3389 30.2873L30.8756 38.4389C29.5276 39.7372 28.8536 40.3863 28.0113 40.7154C27.1689 41.0444 26.2429 41.0202 24.3908 40.9717L24.1388 40.9651C23.575 40.9504 23.2931 40.943 23.1292 40.757C22.9654 40.5711 22.9877 40.2839 23.0325 39.7096L23.0568 39.3977C23.1827 37.7812 23.2457 36.9729 23.5613 36.2464C23.877 35.5199 24.4215 34.9299 25.5105 33.7501L33.8663 24.6969Z" stroke="white" stroke-width="1.5" stroke-linejoin="round"/>
<path d="M32.8999 24.7998L39.1999 31.0998" stroke="white" stroke-width="1.5" stroke-linejoin="round"/>
<path d="M33.7998 41L40.9998 41" stroke="white" stroke-width="1.5" stroke-linecap="round" stroke-linejoin="round"/>
</svg>
